<svg xmlns="http://www.w3.org/2000/svg" width="276" height="65" viewBox="0 0 276 65" fill="none"><g clip-path="url(#clip0_2_1463)"><path fill-rule="evenodd" clip-rule="evenodd" d="M126.908 20.053C126.909 18.0128 126.434 15.0193 128.462 14.4705C132.417 13.4008 131.555 19.1954 131.522 23.5519L139.287 23.5439C139.428 15.5795 140.039 8.7295 132.198 7.2057C128.76 6.53769 124.688 7.06687 122.458 8.75412C118.681 11.61 119.1 16.0896 119.109 20.7893C119.15 32.8704 131.536 32.48 131.534 40.4216L131.531 43.8571C131.528 49.0794 127.806 47.3005 127.292 46.4108C126.489 45.0221 126.942 40.1903 126.894 38.2115C124.949 38.1927 120.792 38.0683 119.117 38.3131C119.073 46.1956 118.063 54.4801 128.617 54.8224C135.455 55.0445 139.294 51.8512 139.297 45.0844C139.299 41.2247 139.664 37.0051 138.143 33.8982C135.017 27.5119 126.946 26.4551 126.908 20.053Z" fill="white"></path><path fill-rule="evenodd" clip-rule="evenodd" d="M93.847 38.2232C93.6299 47.1065 93.2654 54.3292 103.01 54.8121C114.713 55.3924 113.995 46.9287 114.011 40.1733C114.041 27.0744 101.643 28.435 101.603 20.0563C101.595 18.1987 101.238 15.3373 102.693 14.6182C103.835 14.0537 106.068 14.0658 106.184 17.093C106.264 19.1932 106.179 21.4217 106.189 23.5537L114.014 23.4736C113.989 19.7543 114.506 14.6791 112.965 11.5876C111.512 8.67511 109.031 7.17111 104.703 6.97571C94.4694 6.5137 93.4347 12.8223 93.8423 22.0242C94.2078 30.277 101.635 31.9853 105.029 36.6536C106.601 38.8153 106.869 46.321 105.045 47.1604C100.341 49.3253 101.681 40.9872 101.584 38.2053L93.847 38.2232Z" fill="white"></path><path fill-rule="evenodd" clip-rule="evenodd" d="M69.9255 15.0977L76.049 15.1504L76.1198 54.1107L83.8561 54.0197L83.8846 15.1089L90.0638 15.0385L89.9823 7.65546L69.8975 7.64331L69.9255 15.0977Z" fill="white"></path><path fill-rule="evenodd" clip-rule="evenodd" d="M18.6357 10.2368C19.5518 10.7022 23.4309 11.6067 24.7217 11.9963C26.7812 12.618 28.6229 13.3247 30.5847 14.0164C41.7622 17.9572 48.3094 20.3209 58.9442 25.3175C60.8978 26.2354 62.6475 27.4219 64.2753 28.1511C63.9752 26.7702 62.8228 26.043 61.9997 25.2254C61.0997 24.331 60.2467 23.5651 59.4062 22.6509C58.4635 21.6257 57.9131 21.1168 56.851 20.0379C56.0352 19.2089 54.9003 18.0627 54.1553 17.3234C52.5402 15.7209 39.3843 2.51246 38.2386 1.743C36.0154 0.249757 33.1402 -0.520174 29.9117 0.39482C26.7914 1.27897 23.6217 4.9609 21.2124 7.43787C20.2611 8.41612 18.8187 9.56314 18.6357 10.2368Z" fill="white"></path><path fill-rule="evenodd" clip-rule="evenodd" d="M213.514 47.7639C213.975 46.3524 214.967 44.5023 215.665 43.0719C216.075 42.2331 216.389 41.511 216.755 40.7264C216.949 40.3087 217.086 39.9769 217.303 39.556C217.347 39.4714 217.499 39.1922 217.579 39.0682C217.799 38.7255 217.755 38.8019 218.034 38.5694L222.297 47.7689L213.514 47.7639ZM210.415 54.0523C212.458 50.0071 209.631 50.9662 223.858 51.0003L225.333 54.0806L228.718 54.0594C228.566 53.1273 219.991 35.0657 219.053 33.4045L216.754 33.4004C215.998 34.4521 215.239 36.4734 214.589 37.8291C213.862 39.3447 213.201 40.8427 212.463 42.3495C211.306 44.71 208.977 49.0807 208.309 51.3143C206.761 50.4943 200.864 51.0349 198.479 50.9126L198.353 33.3953L195.277 33.4297L195.325 54.1006L210.415 54.0523Z" fill="white"></path><path fill-rule="evenodd" clip-rule="evenodd" d="M178.63 36.1368C183.371 34.9893 187.319 38.3397 188.116 42.0952C189.104 46.7507 185.808 50.5341 182.314 51.3417C177.353 52.4882 173.512 49.1655 172.69 45.4224C171.629 40.5888 174.963 37.0244 178.63 36.1368ZM191.345 45.3296C192.317 38.8286 187.516 33.6606 182.118 32.876C175.404 31.8998 170.325 36.6144 169.465 41.987C168.413 48.5579 173.183 53.85 178.73 54.6042C185.446 55.5173 190.508 50.9246 191.345 45.3296Z" fill="white"></path><path fill-rule="evenodd" clip-rule="evenodd" d="M240.616 24.4651C229.104 30.1949 223.631 14.6274 233.187 10.686C236.761 9.21176 239.576 10.6604 241.664 12.3485C242.455 11.7391 243.495 11.0187 243.841 9.9541C242.096 8.85289 241.24 7.68516 238.307 7.16143C235.763 6.7069 233.281 7.11454 231.294 8.06287C219.918 13.4905 225.367 31.273 238.457 28.7058C241.18 28.1717 242.204 27.0809 243.861 25.9552L243.837 16.3704L235.001 16.4287L235.028 19.5191L240.669 19.557L240.616 24.4651Z" fill="white"></path><path fill-rule="evenodd" clip-rule="evenodd" d="M170.854 14.1345C171.62 14.7279 178.658 24.0776 179.939 25.6995C181.906 28.1911 181.472 28.5676 184.051 28.2458L184.007 7.60865L180.9 7.60132L180.838 21.4727L170.015 7.60162L167.614 7.61799L167.715 28.3032L170.796 28.3001L170.854 14.1345Z" fill="white"></path><path fill-rule="evenodd" clip-rule="evenodd" d="M209.342 10.7637C213.909 10.4623 218.672 10.5935 218.721 15.3885C218.743 17.4998 217.42 19.1007 215.91 19.7561C214.57 20.3381 210.964 20.1626 209.301 20.0844L209.342 10.7637ZM218.444 22.0163C220.005 20.5519 221.334 19.6422 221.807 16.8149C222.253 14.1437 221.29 11.6785 220.042 10.3431C216.859 6.93856 211.897 7.26532 206.121 7.63197L206.203 28.2955L209.27 28.2999L209.347 23.2872L215.218 23.251C216.427 24.5942 216.964 26.8515 217.988 28.3133L221.284 28.2935C221.031 26.6351 218.704 23.762 218.444 22.0163Z" fill="white"></path><path fill-rule="evenodd" clip-rule="evenodd" d="M234.733 36.5584C237.913 36.4715 244.027 35.719 244.103 41.1595C244.181 46.7174 237.909 46.0217 234.657 45.8785L234.733 36.5584ZM243.841 47.7837C245.318 46.4725 246.795 45.1988 247.192 42.5618C247.597 39.8756 246.656 37.5808 245.435 36.1274C242.367 32.4785 237.093 33.393 231.487 33.4028L231.57 54.0847L234.634 54.0511L234.772 49.0836L240.701 49.0236L243.341 54.076L246.685 54.0561C246.391 52.4045 244.097 49.5623 243.841 47.7837Z" fill="white"></path><path fill-rule="evenodd" clip-rule="evenodd" d="M260.801 22.0058C261.421 19.5441 264.007 15.1508 265.063 12.686C265.522 13.1616 269.309 21.0573 269.469 21.9991L260.801 22.0058ZM257.58 28.3056C258.167 27.3815 258.486 26.355 259.131 25.177L271.05 25.1776L272.699 28.3123L276 28.2465C275.62 26.8343 266.678 8.27328 266.273 7.59155L263.888 7.61306L254.294 28.3071L257.58 28.3056Z" fill="white"></path><path fill-rule="evenodd" clip-rule="evenodd" d="M149.913 50.2378C150.461 51.528 152.691 53.2204 154.309 53.8957C161.829 57.0348 170.145 51.1593 165.857 45.349C163.269 41.8427 157.168 42.7781 154.891 40.3047C151.609 36.7403 159.208 34.0342 163.39 37.6708C164.324 37.2761 165.576 36.432 166.101 35.7587C164.051 33.3651 157.782 31.6356 154.004 33.7542C149.964 36.0194 150.067 41.1586 154.067 43.594C155.755 44.6221 158.024 45.035 160.152 45.6186C166.92 47.4738 163.257 52.4173 157.28 51.432C154.293 50.9396 153.456 49.2268 152.269 48.4433L149.913 50.2378Z" fill="white"></path><path fill-rule="evenodd" clip-rule="evenodd" d="M189.091 28.2832L202.287 28.3027L202.396 25.1624L192.356 25.154L192.277 19.5535L199.808 19.5133L199.851 16.4573L192.312 16.3579L192.288 10.7735L202.359 10.7399L202.366 7.59584L189.142 7.59351L189.091 28.2832Z" fill="white"></path><path fill-rule="evenodd" clip-rule="evenodd" d="M150.596 28.2905L163.804 28.3052L163.902 25.1964L153.861 25.1516L153.788 19.5599L161.329 19.5118L161.354 16.4634L153.819 16.3579L153.802 10.7676L163.864 10.7332L163.873 7.60363L150.67 7.59521L150.596 28.2905Z" fill="white"></path><path fill-rule="evenodd" clip-rule="evenodd" d="M8.74316 19.5895C21.9853 19.422 29.1648 20.144 41.9314 22.856C44.8444 23.4747 47.7127 24.4004 50.3872 24.8853C43.3566 20.9611 26.9069 17.3479 17.7907 15.4383C14.5445 14.7582 14.5996 14.2281 12.3695 16.0623C11.5342 16.7494 9.10954 18.8796 8.74316 19.5895Z" fill="white"></path><path fill-rule="evenodd" clip-rule="evenodd" d="M143.985 54.345L145.625 54.4195L145.643 6.57104L143.99 6.59332L143.985 54.345Z" fill="white"></path><path fill-rule="evenodd" clip-rule="evenodd" d="M46.2495 32.7752C45.1254 32.2929 39.1875 31.9738 38.2166 32.7021C37.3404 33.3592 37.3722 39.7858 37.9861 40.5356C38.6754 41.3779 44.9492 41.3307 45.845 40.7742C46.9345 40.0973 46.5482 33.9769 46.2495 32.7752Z" fill="white"></path><path fill-rule="evenodd" clip-rule="evenodd" d="M18.5131 32.7248C18.027 34.435 18.1179 36.929 18.2004 38.9537C18.3096 41.6384 19.9678 41.0679 22.5468 41.0696C25.1319 41.0713 26.9708 41.6865 27.0239 38.9682C27.0564 37.2889 27.1302 34.1148 26.8016 32.7298C25.2958 32.1122 20.0603 32.1919 18.5131 32.7248Z" fill="white"></path><path fill-rule="evenodd" clip-rule="evenodd" d="M28.7472 60.0689C29.7384 60.6593 33.4802 60.4332 34.9025 60.3581C37.401 60.2263 36.762 58.2384 36.7661 55.8819C36.7705 53.2113 37.4108 51.7166 34.6533 51.6954C33.0552 51.683 29.9557 51.3833 28.6914 51.8902C27.6612 52.4742 27.9016 57.1715 28.002 58.5918C28.0789 59.6776 28.1527 59.7089 28.7472 60.0689Z" fill="white"></path><path fill-rule="evenodd" clip-rule="evenodd" d="M16.964 40.7537C17.558 39.2124 17.3476 36.5151 17.3241 34.5155C17.2903 31.6578 15.5727 32.4034 12.926 32.3877C10.2102 32.3715 8.63057 31.6871 8.56775 34.5184C8.52217 36.5589 8.37711 39.0321 8.87539 40.7582C10.5126 41.3368 15.3194 41.336 16.964 40.7537Z" fill="white"></path><path fill-rule="evenodd" clip-rule="evenodd" d="M28.0309 39.9308C28.3545 41.3385 29.8101 41.0991 31.1768 41.0907C36.9309 41.055 36.8229 41.448 36.7873 37.9722C36.7319 32.5326 37.511 32.3587 33.6538 32.388C28.4683 32.4271 27.9855 31.6961 27.9741 35.5094C27.9709 36.5157 27.8386 39.0943 28.0309 39.9308Z" fill="white"></path><path fill-rule="evenodd" clip-rule="evenodd" d="M37.9878 42.2791C37.4813 44.0391 37.5795 46.4753 37.6436 48.5362C37.7273 51.2364 39.2758 50.6155 41.7901 50.6192C44.1605 50.6228 46.4125 51.3323 46.4833 48.7877C46.5267 47.2307 46.7316 43.8548 46.2293 42.6302C45.5192 41.5829 39.0547 41.933 37.9878 42.2791Z" fill="white"></path><path fill-rule="evenodd" clip-rule="evenodd" d="M26.7737 50.3047C27.1273 49.0127 27.085 45.4616 27.0151 43.8376C26.9052 41.2902 24.7685 41.9579 22.3009 41.9639C19.5807 41.9704 18.2534 41.4481 18.1966 44.3353C18.1563 46.3654 18.0587 48.6899 18.5333 50.3105C20.1637 50.795 25.1296 50.8557 26.7737 50.3047Z" fill="white"></path><path fill-rule="evenodd" clip-rule="evenodd" d="M55.9359 32.9991C55.0054 31.9388 51.2627 32.386 49.6665 32.3881C46.744 32.3915 47.4437 33.9267 47.4398 36.7405C47.4334 41.4169 46.7545 41.0278 53.3965 41.0545C55.21 41.0618 55.3431 41.1209 55.8632 40.3858C56.4586 39.5006 56.377 34.0089 55.9359 32.9991Z" fill="white"></path><path fill-rule="evenodd" clip-rule="evenodd" d="M36.6115 49.9923C36.9953 48.7604 37.2086 42.7788 36.0419 42.2211C35.3716 41.9006 32.8545 42.0256 31.9219 42.0159C30.5398 42.0017 28.8673 41.6846 28.2697 42.6635C27.9961 43.1116 27.353 49.7612 28.7494 50.4408C28.9726 50.5497 35.3102 51.17 36.6115 49.9923Z" fill="white"></path><path fill-rule="evenodd" clip-rule="evenodd" d="M26.8875 23.8329C25.5562 23.3658 22.2776 23.4899 20.5665 23.4668C17.3343 23.4233 18.2168 24.1803 18.2159 27.4157C18.2151 30.3249 17.6761 31.3451 20.8089 31.3376C22.5563 31.3332 25.4284 31.8087 26.7377 30.8506C27.2144 29.8535 27.1446 25.1279 26.8875 23.8329Z" fill="white"></path><path fill-rule="evenodd" clip-rule="evenodd" d="M248.431 28.2674L251.592 28.285L251.611 7.62724L248.436 7.61011L248.431 28.2674Z" fill="white"></path><path fill-rule="evenodd" clip-rule="evenodd" d="M8.67799 24.4158C8.42 26.0699 8.38021 29.7443 8.93442 31.1115C10.5049 31.5043 15.7834 31.7184 16.9442 30.9278C17.5144 30.0959 17.5952 24.8119 17.1142 23.7341C15.8396 23.1821 10.1144 24.1227 8.67799 24.4158Z" fill="white"></path><path fill-rule="evenodd" clip-rule="evenodd" d="M36.6199 25.0476C36.2091 24.5841 37.0966 24.9183 35.796 24.5308L32.9253 24.1992C28.4804 23.6102 28.0459 23.2627 27.9856 24.9294C27.929 26.5049 27.8789 30.0072 28.4178 31.1135C29.7109 31.4727 34.6091 31.6069 35.9096 31.1892C37.0084 30.5585 36.7595 29.8538 36.7476 28.4048C36.7392 27.3921 36.9635 25.8539 36.6199 25.0476Z" fill="white"></path><path fill-rule="evenodd" clip-rule="evenodd" d="M46.2276 55.3909C46.5776 54.5646 46.8036 52.4052 45.8127 51.8902C44.9167 51.4244 42.6582 51.716 41.5429 51.7143C36.909 51.707 37.6716 51.7688 37.6539 56.3732C37.6489 57.684 37.387 59.4043 38.348 60.0326C39.2576 60.6273 41.21 60.3668 42.0094 59.7822C42.7486 59.2413 45.9181 56.1222 46.2276 55.3909Z" fill="white"></path><path fill-rule="evenodd" clip-rule="evenodd" d="M47.4435 48.52C47.4453 50.7294 48.5042 50.9883 50.7296 50.5242C52.2517 50.2066 52.9126 48.8817 53.8567 48.0028C54.8533 47.0754 56.0478 46.4102 56.2134 44.5989C56.4401 42.118 55.5408 41.9789 53.3847 41.9745C46.5959 41.96 47.4371 41.0659 47.4435 48.52Z" fill="white"></path><path fill-rule="evenodd" clip-rule="evenodd" d="M65.3265 34.5317C66.016 31.9678 65.7573 32.2808 59.2902 32.3779C56.5355 32.419 57.0684 33.9526 57.1159 38.718C57.1328 40.4053 57.3156 41.0473 59.0708 41.1124C62.3 41.2325 64.5873 37.2824 65.3265 34.5317Z" fill="white"></path><path fill-rule="evenodd" clip-rule="evenodd" d="M16.9662 42.2961C15.8321 41.9556 9.8496 41.4906 8.99825 42.3975C7.08123 44.4393 10.703 46.9946 11.4743 47.756C12.1722 48.4455 14.8266 52.0472 16.8809 50.2479C17.782 49.4583 17.3745 43.3407 16.9662 42.2961Z" fill="white"></path><path fill-rule="evenodd" clip-rule="evenodd" d="M26.769 52.2008C25.7842 51.4014 19.283 51.5076 18.6834 52.0444C17.8283 52.8104 18.0401 54.2918 18.8551 55.1339C21.0835 57.4352 24.2814 61.5284 26.4838 60.0421C27.5139 59.3467 27.0016 52.7387 26.769 52.2008Z" fill="white"></path><path fill-rule="evenodd" clip-rule="evenodd" d="M0.0374755 32.5022C-0.611182 38.3439 7.37311 44.9126 7.55873 38.7194C7.60885 37.0482 7.65726 34.1117 7.32564 32.7048C6.02237 32.266 1.49552 32.1895 0.0374755 32.5022Z" fill="white"></path><path fill-rule="evenodd" clip-rule="evenodd" d="M46.2645 26.5884C44.5378 25.9185 42.1063 25.5849 40.034 25.22C38.3291 24.9194 37.6582 24.4114 37.6267 26.1543C37.6106 27.0473 37.5736 29.0241 37.6728 29.842C37.8438 31.2533 38.622 31.3494 40.048 31.3596C44.9509 31.3945 47.5918 32.5008 46.2645 26.5884Z" fill="white"></path><path fill-rule="evenodd" clip-rule="evenodd" d="M0.142567 31.2785C1.20132 31.3986 6.29929 31.5401 7.00701 31.0854C7.87654 30.5271 7.65442 25.942 7.47553 24.7423C5.73192 24.5692 2.85813 25.5151 2.04375 26.404C1.38552 27.1222 0.0468498 29.8518 0.142567 31.2785Z" fill="white"></path><path fill-rule="evenodd" clip-rule="evenodd" d="M56.0969 28.8426C54.5115 28.2343 51.7123 27.6479 49.9079 27.1884C48.5526 26.8436 47.6518 26.1949 47.4527 27.6299C47.2782 28.8858 47.474 30.3273 47.877 31.1409C49.312 31.4731 51.4696 31.2986 53.1407 31.3174C55.3906 31.3428 56.4545 31.4466 56.0969 28.8426Z" fill="white"></path><path fill-rule="evenodd" clip-rule="evenodd" d="M28.4569 61.5291C26.1547 65.8044 34.5983 65.3661 36.5696 64.218C37.2191 61.5897 36.2209 61.2618 33.9026 61.2787C32.1925 61.2911 29.9013 61.1398 28.4569 61.5291Z" fill="white"></path><path fill-rule="evenodd" clip-rule="evenodd" d="M63.7697 31.0963C62.9707 30.5785 58.2574 29.1948 57.2275 29.2818C56.7587 31.1334 57.9617 31.2838 59.54 31.2919C60.8297 31.2986 62.7829 31.5005 63.7697 31.0963Z" fill="white"></path><path fill-rule="evenodd" clip-rule="evenodd" d="M57.3325 44.3474C57.9183 44.0984 57.3179 44.5816 58.0734 43.8585C58.2614 43.6785 58.3604 43.5342 58.5426 43.3385C58.9719 42.8768 59.2258 42.706 59.6087 42.1394C58.0964 41.4452 56.5784 42.722 57.3325 44.3474Z" fill="white"></path><path fill-rule="evenodd" clip-rule="evenodd" d="M37.8423 63.4977C38.867 63.0334 39.8108 62.3422 40.2054 61.3859C38.6031 61.3312 37.1823 61.7164 37.8423 63.4977Z" fill="white"></path><path fill-rule="evenodd" clip-rule="evenodd" d="M49.6555 51.7604C48.3609 51.6714 48.2992 51.6975 47.4824 52.2703L47.5535 53.8997L49.6555 51.7604Z" fill="white"></path></g><defs><clipPath id="clip0_2_1463"><rect width="276" height="65" fill="white"></rect></clipPath></defs></svg>