<svg xmlns="http://www.w3.org/2000/svg" width="276" height="65" viewBox="0 0 276 65" fill="none"><g clip-path="url(#clip0_15_2)"><path fill-rule="evenodd" clip-rule="evenodd" d="M126.908 20.0528C126.909 18.0126 126.434 15.019 128.462 14.4702C132.417 13.4005 131.555 19.1951 131.522 23.5516L139.287 23.5437C139.428 15.5792 140.039 8.72926 132.198 7.20546C128.76 6.53745 124.688 7.06662 122.458 8.75388C118.681 11.6098 119.1 16.0894 119.109 20.789C119.15 32.8701 131.536 32.4798 131.534 40.4213L131.531 43.8569C131.528 49.0792 127.806 47.3003 127.292 46.4105C126.489 45.0218 126.942 40.1901 126.894 38.2113C124.949 38.1924 120.792 38.0681 119.117 38.3129C119.073 46.1953 118.063 54.4798 128.617 54.8222C135.455 55.0442 139.294 51.8509 139.297 45.0842C139.299 41.2244 139.664 37.0049 138.143 33.8979C135.017 27.5117 126.946 26.4549 126.908 20.0528Z" fill="#346180"></path><path fill-rule="evenodd" clip-rule="evenodd" d="M93.847 38.2232C93.6299 47.1065 93.2654 54.3292 103.01 54.8121C114.713 55.3924 113.995 46.9287 114.011 40.1733C114.041 27.0744 101.643 28.435 101.603 20.0563C101.595 18.1987 101.238 15.3373 102.693 14.6182C103.835 14.0537 106.068 14.0658 106.184 17.093C106.264 19.1932 106.179 21.4217 106.189 23.5537L114.014 23.4736C113.989 19.7543 114.506 14.6791 112.965 11.5876C111.512 8.67511 109.031 7.17111 104.703 6.97571C94.4694 6.5137 93.4347 12.8223 93.8423 22.0242C94.2078 30.277 101.635 31.9853 105.029 36.6536C106.601 38.8153 106.869 46.321 105.045 47.1604C100.341 49.3253 101.681 40.9872 101.584 38.2053L93.847 38.2232Z" fill="#346180"></path><path fill-rule="evenodd" clip-rule="evenodd" d="M69.9255 15.0976L76.049 15.1503L76.1198 54.1105L83.8561 54.0195L83.8846 15.1088L90.0638 15.0384L89.9823 7.65534L69.8975 7.64319L69.9255 15.0976Z" fill="#346180"></path><path fill-rule="evenodd" clip-rule="evenodd" d="M18.6357 10.2366C19.5518 10.7021 23.4309 11.6066 24.7217 11.9962C26.7812 12.6179 28.6229 13.3246 30.5847 14.0163C41.7622 17.957 48.3094 20.3207 58.9443 25.3173C60.8978 26.2353 62.6475 27.4217 64.2753 28.151C63.9752 26.7701 62.8228 26.0429 61.9997 25.2252C61.0997 24.3308 60.2467 23.565 59.4062 22.6507C58.4635 21.6256 57.9131 21.1167 56.851 20.0377C56.0352 19.2088 54.9003 18.0625 54.1553 17.3233C52.5402 15.7208 39.3843 2.51234 38.2386 1.74288C36.0154 0.249635 33.1402 -0.520296 29.9117 0.394698C26.7914 1.27885 23.6217 4.96078 21.2124 7.43775C20.2611 8.416 18.8187 9.56302 18.6357 10.2366Z" fill="#258639"></path><path fill-rule="evenodd" clip-rule="evenodd" d="M213.514 47.7637C213.975 46.3523 214.967 44.5022 215.665 43.0718C216.075 42.233 216.389 41.5109 216.755 40.7263C216.949 40.3086 217.086 39.9768 217.303 39.5559C217.347 39.4713 217.499 39.1921 217.579 39.068C217.799 38.7254 217.755 38.8017 218.034 38.5692L222.297 47.7687L213.514 47.7637ZM210.415 54.0521C212.458 50.007 209.631 50.9661 223.858 51.0002L225.333 54.0805L228.718 54.0593C228.566 53.1272 219.991 35.0656 219.053 33.4043L216.754 33.4003C215.998 34.4519 215.239 36.4733 214.589 37.8289C213.862 39.3446 213.201 40.8425 212.463 42.3494C211.306 44.7099 208.977 49.0806 208.309 51.3142C206.761 50.4942 200.864 51.0348 198.479 50.9125L198.353 33.3951L195.277 33.4296L195.325 54.1004L210.415 54.0521Z" fill="#26853A"></path><path fill-rule="evenodd" clip-rule="evenodd" d="M178.63 36.1366C183.371 34.9891 187.319 38.3394 188.116 42.0949C189.104 46.7504 185.808 50.5338 182.314 51.3415C177.353 52.488 173.512 49.1652 172.69 45.4222C171.629 40.5886 174.963 37.0241 178.63 36.1366ZM191.345 45.3293C192.317 38.8284 187.516 33.6604 182.118 32.8758C175.404 31.8996 170.325 36.6141 169.465 41.9868C168.413 48.5577 173.183 53.8497 178.73 54.6039C185.446 55.517 190.508 50.9243 191.345 45.3293Z" fill="#258639"></path><path fill-rule="evenodd" clip-rule="evenodd" d="M240.616 24.465C229.104 30.1948 223.631 14.6273 233.187 10.6859C236.761 9.21164 239.576 10.6603 241.664 12.3483C242.455 11.7389 243.495 11.0186 243.841 9.95398C242.096 8.85277 241.24 7.68504 238.307 7.16131C235.763 6.70678 233.281 7.11442 231.294 8.06275C219.918 13.4904 225.367 31.2729 238.457 28.7057C241.18 28.1716 242.204 27.0808 243.861 25.9551L243.837 16.3703L235.001 16.4286L235.028 19.519L240.669 19.5569L240.616 24.465Z" fill="#258639"></path><path fill-rule="evenodd" clip-rule="evenodd" d="M170.854 14.1344C171.62 14.7278 178.658 24.0774 179.939 25.6994C181.906 28.191 181.472 28.5675 184.051 28.2457L184.007 7.60852L180.9 7.6012L180.838 21.4726L170.015 7.6015L167.614 7.61787L167.715 28.3031L170.796 28.2999L170.854 14.1344Z" fill="#26853A"></path><path fill-rule="evenodd" clip-rule="evenodd" d="M209.342 10.7635C213.909 10.4621 218.672 10.5933 218.721 15.3883C218.743 17.4995 217.42 19.1005 215.91 19.7558C214.57 20.3378 210.964 20.1624 209.301 20.0842L209.342 10.7635ZM218.444 22.0161C220.005 20.5516 221.334 19.6419 221.807 16.8147C222.253 14.1434 221.29 11.6783 220.042 10.3429C216.859 6.93831 211.897 7.26508 206.121 7.63173L206.203 28.2952L209.27 28.2996L209.347 23.2869L215.218 23.2508C216.427 24.594 216.964 26.8512 217.988 28.313L221.284 28.2932C221.031 26.6348 218.704 23.7617 218.444 22.0161Z" fill="#258639"></path><path fill-rule="evenodd" clip-rule="evenodd" d="M234.733 36.5582C237.913 36.4712 244.027 35.7187 244.103 41.1593C244.181 46.7172 237.909 46.0215 234.657 45.8782L234.733 36.5582ZM243.841 47.7835C245.318 46.4722 246.795 45.1985 247.192 42.5616C247.597 39.8753 246.656 37.5805 245.435 36.1272C242.367 32.4782 237.093 33.3928 231.487 33.4026L231.57 54.0845L234.634 54.0508L234.772 49.0834L240.701 49.0234L243.341 54.0758L246.685 54.0558C246.391 52.4043 244.097 49.5621 243.841 47.7835Z" fill="#258639"></path><path fill-rule="evenodd" clip-rule="evenodd" d="M260.801 22.0056C261.421 19.5439 264.007 15.1506 265.063 12.6858C265.522 13.1614 269.309 21.0571 269.469 21.9989L260.801 22.0056ZM257.58 28.3053C258.167 27.3813 258.486 26.3547 259.131 25.1767L271.05 25.1773L272.699 28.312L276 28.2463C275.62 26.834 266.678 8.27303 266.273 7.59131L263.888 7.61281L254.294 28.3069L257.58 28.3053Z" fill="#258639"></path><path fill-rule="evenodd" clip-rule="evenodd" d="M149.913 50.2376C150.461 51.5278 152.691 53.2202 154.309 53.8955C161.829 57.0346 170.145 51.1591 165.857 45.3488C163.269 41.8424 157.168 42.7778 154.891 40.3045C151.609 36.74 159.208 34.034 163.39 37.6706C164.324 37.2759 165.576 36.4318 166.101 35.7585C164.051 33.3649 157.782 31.6354 154.004 33.754C149.964 36.0192 150.067 41.1584 154.067 43.5937C155.755 44.6219 158.024 45.0348 160.152 45.6183C166.92 47.4736 163.257 52.4171 157.28 51.4318C154.293 50.9394 153.456 49.2266 152.269 48.4431L149.913 50.2376Z" fill="#26853A"></path><path fill-rule="evenodd" clip-rule="evenodd" d="M189.091 28.2831L202.287 28.3026L202.396 25.1623L192.356 25.1539L192.277 19.5534L199.808 19.5132L199.851 16.4572L192.312 16.3578L192.288 10.7734L202.359 10.7398L202.366 7.59572L189.142 7.59338L189.091 28.2831Z" fill="#258639"></path><path fill-rule="evenodd" clip-rule="evenodd" d="M150.596 28.2904L163.804 28.3051L163.902 25.1962L153.861 25.1515L153.788 19.5598L161.329 19.5117L161.354 16.4633L153.819 16.3578L153.802 10.7675L163.864 10.7331L163.873 7.60351L150.67 7.59509L150.596 28.2904Z" fill="#26853A"></path><path fill-rule="evenodd" clip-rule="evenodd" d="M8.74316 19.5894C21.9853 19.4219 29.1648 20.1438 41.9314 22.8559C44.8444 23.4746 47.7127 24.4003 50.3872 24.8852C43.3566 20.961 26.9069 17.3477 17.7907 15.4381C14.5445 14.7581 14.5996 14.228 12.3695 16.0622C11.5342 16.7492 9.10954 18.8795 8.74316 19.5894Z" fill="#8BBC39"></path><path fill-rule="evenodd" clip-rule="evenodd" d="M143.985 54.3447L145.625 54.4192L145.643 6.5708L143.99 6.59307L143.985 54.3447Z" fill="#346180"></path><path fill-rule="evenodd" clip-rule="evenodd" d="M46.2495 32.7752C45.1254 32.2929 39.1875 31.9738 38.2166 32.7021C37.3404 33.3592 37.3722 39.7858 37.9861 40.5356C38.6754 41.3779 44.9492 41.3307 45.845 40.7742C46.9345 40.0973 46.5482 33.9769 46.2495 32.7752Z" fill="#346180"></path><path fill-rule="evenodd" clip-rule="evenodd" d="M18.5131 32.7246C18.027 34.4348 18.1179 36.9287 18.2004 38.9535C18.3096 41.6381 19.9678 41.0677 22.5468 41.0694C25.1319 41.0711 26.9708 41.6863 27.0239 38.968C27.0564 37.2887 27.1302 34.1145 26.8016 32.7296C25.2958 32.1119 20.0603 32.1917 18.5131 32.7246Z" fill="#346180"></path><path fill-rule="evenodd" clip-rule="evenodd" d="M28.7472 60.0688C29.7384 60.6592 33.4802 60.4331 34.9025 60.358C37.401 60.2261 36.762 58.2383 36.7661 55.8818C36.7705 53.2111 37.4108 51.7165 34.6533 51.6953C33.0552 51.6828 29.9557 51.3832 28.6914 51.8901C27.6612 52.4741 27.9016 57.1714 28.002 58.5917C28.0789 59.6775 28.1527 59.7088 28.7472 60.0688Z" fill="#346180"></path><path fill-rule="evenodd" clip-rule="evenodd" d="M16.964 40.7535C17.558 39.2123 17.3476 36.515 17.3241 34.5153C17.2903 31.6577 15.5727 32.4033 12.926 32.3876C10.2102 32.3714 8.63057 31.687 8.56775 34.5183C8.52217 36.5588 8.37711 39.032 8.87539 40.7581C10.5126 41.3366 15.3194 41.3359 16.964 40.7535Z" fill="#346180"></path><path fill-rule="evenodd" clip-rule="evenodd" d="M28.0309 39.9308C28.3545 41.3385 29.8101 41.0991 31.1768 41.0907C36.9309 41.055 36.8229 41.448 36.7873 37.9722C36.7318 32.5326 37.511 32.3587 33.6538 32.388C28.4683 32.4271 27.9855 31.6961 27.9741 35.5094C27.9709 36.5157 27.8386 39.0943 28.0309 39.9308Z" fill="#346180"></path><path fill-rule="evenodd" clip-rule="evenodd" d="M37.9878 42.279C37.4813 44.039 37.5795 46.4751 37.6436 48.5361C37.7273 51.2363 39.2758 50.6154 41.7901 50.6191C44.1605 50.6227 46.4125 51.3321 46.4833 48.7876C46.5267 47.2306 46.7316 43.8547 46.2293 42.6301C45.5192 41.5828 39.0547 41.9329 37.9878 42.279Z" fill="#346180"></path><path fill-rule="evenodd" clip-rule="evenodd" d="M26.7737 50.3046C27.1273 49.0125 27.085 45.4615 27.0151 43.8375C26.9052 41.2901 24.7685 41.9578 22.3009 41.9637C19.5807 41.9703 18.2534 41.448 18.1966 44.3352C18.1563 46.3653 18.0587 48.6898 18.5333 50.3104C20.1637 50.7948 25.1296 50.8556 26.7737 50.3046Z" fill="#346180"></path><path fill-rule="evenodd" clip-rule="evenodd" d="M55.9359 32.9989C55.0054 31.9387 51.2627 32.3859 49.6665 32.388C46.744 32.3914 47.4437 33.9265 47.4398 36.7404C47.4334 41.4168 46.7545 41.0277 53.3965 41.0544C55.21 41.0617 55.3431 41.1207 55.8632 40.3857C56.4586 39.5005 56.377 34.0088 55.9359 32.9989Z" fill="#346180"></path><path fill-rule="evenodd" clip-rule="evenodd" d="M36.6115 49.9922C36.9953 48.7603 37.2086 42.7787 36.0419 42.221C35.3716 41.9005 32.8545 42.0254 31.9219 42.0158C30.5398 42.0016 28.8673 41.6845 28.2697 42.6634C27.9961 43.1115 27.353 49.7611 28.7494 50.4407C28.9726 50.5496 35.3102 51.1699 36.6115 49.9922Z" fill="#346180"></path><path fill-rule="evenodd" clip-rule="evenodd" d="M26.8875 23.8327C25.5562 23.3657 22.2776 23.4898 20.5665 23.4667C17.3343 23.4232 18.2168 24.1802 18.2159 27.4156C18.2151 30.3248 17.6761 31.345 20.8089 31.3375C22.5563 31.3331 25.4284 31.8085 26.7377 30.8505C27.2144 29.8534 27.1446 25.1278 26.8875 23.8327Z" fill="#346180"></path><path fill-rule="evenodd" clip-rule="evenodd" d="M248.431 28.2672L251.592 28.2848L251.611 7.627L248.436 7.60986L248.431 28.2672Z" fill="#26853A"></path><path fill-rule="evenodd" clip-rule="evenodd" d="M8.67799 24.4157C8.42 26.0697 8.38021 29.7442 8.93442 31.1114C10.5049 31.5042 15.7834 31.7183 16.9442 30.9277C17.5144 30.0957 17.5952 24.8118 17.1142 23.7339C15.8396 23.182 10.1144 24.1226 8.67799 24.4157Z" fill="#346180"></path><path fill-rule="evenodd" clip-rule="evenodd" d="M36.6199 25.0475C36.2091 24.5839 37.0966 24.9182 35.796 24.5306L32.9253 24.1991C28.4804 23.61 28.0459 23.2626 27.9856 24.9292C27.929 26.5048 27.8789 30.007 28.4178 31.1134C29.7109 31.4726 34.6091 31.6067 35.9096 31.1891C37.0084 30.5583 36.7595 29.8537 36.7476 28.4047C36.7392 27.392 36.9635 25.8537 36.6199 25.0475Z" fill="#346180"></path><path fill-rule="evenodd" clip-rule="evenodd" d="M46.2276 55.3908C46.5776 54.5645 46.8036 52.4051 45.8127 51.8901C44.9167 51.4243 42.6582 51.7159 41.5429 51.7142C36.909 51.7068 37.6716 51.7687 37.6539 56.3731C37.6489 57.6839 37.387 59.4042 38.348 60.0324C39.2576 60.6272 41.21 60.3667 42.0094 59.782C42.7486 59.2412 45.9181 56.1221 46.2276 55.3908Z" fill="#346180"></path><path fill-rule="evenodd" clip-rule="evenodd" d="M47.4435 48.5198C47.4453 50.7292 48.5042 50.988 50.7296 50.524C52.2517 50.2064 52.9126 48.8814 53.8567 48.0026C54.8533 47.0751 56.0478 46.4099 56.2134 44.5986C56.4401 42.1178 55.5408 41.9786 53.3847 41.9743C46.5959 41.9598 47.4371 41.0657 47.4435 48.5198Z" fill="#346180"></path><path fill-rule="evenodd" clip-rule="evenodd" d="M65.3265 34.5316C66.016 31.9677 65.7573 32.2807 59.2902 32.3778C56.5355 32.4189 57.0684 33.9525 57.1159 38.7179C57.1328 40.4052 57.3156 41.0471 59.0708 41.1123C62.3 41.2324 64.5873 37.2823 65.3265 34.5316Z" fill="#346180"></path><path fill-rule="evenodd" clip-rule="evenodd" d="M16.9662 42.2961C15.8321 41.9556 9.8496 41.4906 8.99825 42.3975C7.08123 44.4393 10.703 46.9946 11.4743 47.756C12.1722 48.4455 14.8266 52.0472 16.8809 50.2479C17.782 49.4583 17.3745 43.3407 16.9662 42.2961Z" fill="#346180"></path><path fill-rule="evenodd" clip-rule="evenodd" d="M26.769 52.2008C25.7842 51.4014 19.283 51.5076 18.6834 52.0444C17.8283 52.8104 18.0401 54.2918 18.8551 55.1339C21.0835 57.4352 24.2814 61.5284 26.4838 60.0421C27.5139 59.3467 27.0016 52.7387 26.769 52.2008Z" fill="#346180"></path><path fill-rule="evenodd" clip-rule="evenodd" d="M0.0374755 32.5021C-0.611182 38.3438 7.37311 44.9125 7.55873 38.7193C7.60885 37.0481 7.65726 34.1116 7.32564 32.7047C6.02237 32.2659 1.49552 32.1894 0.0374755 32.5021Z" fill="#346180"></path><path fill-rule="evenodd" clip-rule="evenodd" d="M46.2645 26.5883C44.5378 25.9184 42.1063 25.5848 40.034 25.2199C38.3291 24.9193 37.6582 24.4113 37.6267 26.1542C37.6106 27.0472 37.5736 29.024 37.6728 29.8419C37.8438 31.2532 38.622 31.3493 40.048 31.3594C44.9509 31.3943 47.5918 32.5007 46.2645 26.5883Z" fill="#346180"></path><path fill-rule="evenodd" clip-rule="evenodd" d="M0.142567 31.2785C1.20132 31.3986 6.29929 31.5401 7.00701 31.0854C7.87654 30.5271 7.65442 25.942 7.47553 24.7423C5.73192 24.5692 2.85813 25.5151 2.04375 26.404C1.38552 27.1222 0.0468498 29.8518 0.142567 31.2785Z" fill="#346180"></path><path fill-rule="evenodd" clip-rule="evenodd" d="M56.0969 28.8425C54.5115 28.2342 51.7123 27.6478 49.9079 27.1883C48.5526 26.8435 47.6518 26.1948 47.4527 27.6297C47.2782 28.8857 47.474 30.3272 47.877 31.1407C49.312 31.473 51.4696 31.2984 53.1407 31.3173C55.3906 31.3427 56.4545 31.4465 56.0969 28.8425Z" fill="#35607E"></path><path fill-rule="evenodd" clip-rule="evenodd" d="M28.4569 61.529C26.1547 65.8043 34.5983 65.3659 36.5696 64.2178C37.2191 61.5896 36.2209 61.2617 33.9026 61.2785C32.1925 61.291 29.9013 61.1397 28.4569 61.529Z" fill="#346180"></path><path fill-rule="evenodd" clip-rule="evenodd" d="M63.7697 31.0962C62.9707 30.5784 58.2574 29.1947 57.2275 29.2816C56.7587 31.1333 57.9617 31.2836 59.54 31.2918C60.8297 31.2985 62.7829 31.5004 63.7697 31.0962Z" fill="#38617C"></path><path fill-rule="evenodd" clip-rule="evenodd" d="M57.3325 44.3473C57.9183 44.0983 57.3179 44.5815 58.0734 43.8583C58.2614 43.6784 58.3604 43.5341 58.5426 43.3384C58.9719 42.8766 59.2258 42.7059 59.6087 42.1393C58.0964 41.4451 56.5784 42.7219 57.3325 44.3473Z" fill="#356080"></path><path fill-rule="evenodd" clip-rule="evenodd" d="M37.8423 63.4976C38.867 63.0333 39.8108 62.342 40.2054 61.3858C38.6031 61.3311 37.1823 61.7163 37.8423 63.4976Z" fill="#3D627B"></path><path fill-rule="evenodd" clip-rule="evenodd" d="M49.6555 51.7603C48.3609 51.6713 48.2992 51.6973 47.4824 52.2701L47.5535 53.8996L49.6555 51.7603Z" fill="#3D627B"></path></g><defs><clipPath id="clip0_15_2"><rect width="276" height="65" fill="white"></rect></clipPath></defs></svg>