<svg xmlns="http://www.w3.org/2000/svg" width="97" height="121" viewBox="0 0 97 121" fill="none"><path d="M93.0209 77.0502C92.9309 76.8155 92.7982 76.6082 92.6224 76.4281C92.4464 76.2481 92.2419 76.1102 92.0088 76.0146C91.7758 75.9188 91.5331 75.873 91.2808 75.8774H82.9499V67.6219C82.9499 67.3742 82.9026 67.1359 82.8075 66.9072C82.7123 66.6782 82.5769 66.4761 82.4011 66.3012C82.2253 66.126 82.0225 65.991 81.7929 65.8963C81.5631 65.8013 81.3241 65.7539 81.0755 65.7539C80.8269 65.7539 80.5877 65.8013 80.3581 65.8963C80.1283 65.991 79.9255 66.126 79.7499 66.3012C79.5741 66.4761 79.4387 66.6782 79.3435 66.9072C79.2484 67.1359 79.2009 67.3742 79.2009 67.6219V75.8774H70.8488C70.5972 75.8737 70.355 75.9198 70.1223 76.0156C69.8899 76.1118 69.6856 76.2497 69.5105 76.4296C69.3348 76.6095 69.2025 76.8168 69.113 77.0512C69.0234 77.2857 68.9843 77.5282 68.9953 77.779C69.0011 78.0205 69.0526 78.2523 69.1491 78.4742C69.2455 78.6959 69.3801 78.8917 69.5531 79.0612C69.7261 79.2309 69.9247 79.3619 70.1488 79.4548C70.3728 79.5472 70.6063 79.5945 70.8488 79.5966H79.2009V87.9357C79.206 88.1792 79.2558 88.4133 79.3508 88.6375C79.4453 88.8621 79.578 89.0613 79.7493 89.235C79.9203 89.4091 80.1176 89.5456 80.3407 89.6444C80.5639 89.7433 80.7978 89.7978 81.0418 89.8081C81.2914 89.8047 81.5313 89.7555 81.7617 89.6597C81.9921 89.5641 82.1962 89.4289 82.3738 89.2544C82.5517 89.0801 82.6906 88.8785 82.7901 88.6507C82.8898 88.4226 82.9431 88.1844 82.9499 87.9357V79.5966H91.2808C91.524 79.5951 91.758 79.5482 91.9825 79.4556C92.2071 79.3635 92.4061 79.2323 92.5794 79.0627C92.7529 78.8931 92.8879 78.6972 92.9847 78.4752C93.0815 78.253 93.133 78.0212 93.1388 77.779C93.1499 77.5278 93.1105 77.2849 93.0209 77.0502Z" fill="#00A357"></path><path d="M21.3148 117.14V110.765H26.7935V108.056H21.3148V105.346H26.0302V102.616H18.2821V117.14H21.3148Z" fill="#6B6C6E"></path><path d="M39.5262 117.14C42.2068 117.14 44.6915 115.424 44.6915 112.461C44.6915 111.058 44.0262 109.81 42.7155 108.913C43.4199 108.27 43.7522 107.471 43.7522 106.457C43.7522 103.747 41.8153 102.616 39.1152 102.616H34.439V117.14H39.5262ZM37.4718 114.411V110.668H39.624C40.8762 110.668 41.5806 111.389 41.5806 112.559C41.5806 113.69 40.8762 114.411 39.624 114.411H37.4718ZM37.4718 108.036V105.346H38.9978C39.8391 105.346 40.6413 105.58 40.6413 106.691C40.6413 107.295 40.4653 108.036 38.9978 108.036H37.4718Z" fill="#6B6C6E"></path><path d="M54.6452 102.636H52.5321V121H54.6452V102.636Z" fill="#6B6C6E"></path><path d="M66.598 110.707C68.0068 110.863 68.7895 111.584 68.7895 112.754C68.7895 113.689 68.0068 114.489 67.0089 114.489C66.1482 114.489 65.4633 114.274 64.798 113.436L62.2936 115.268C63.6827 116.789 65.3458 117.393 67.0089 117.393C69.572 117.393 71.9395 115.366 71.9395 112.539C71.9395 109.732 69.8851 108.056 67.4002 107.899C65.8546 107.802 65.3655 107.198 65.3655 106.535C65.3655 105.736 65.9133 105.248 66.7155 105.248C67.2242 105.248 67.8699 105.56 68.2611 105.969L70.6483 104.234C69.5332 102.909 68.1633 102.363 66.7155 102.363C64.7002 102.363 62.4307 104.098 62.4307 106.554C62.4307 108.835 64.074 110.414 66.598 110.707Z" fill="#6B6C6E"></path><path d="M85.2591 117.14V105.346H89.0941V102.616H78.6264V105.346H82.2264V117.14H85.2591Z" fill="#6B6C6E"></path><path d="M64.5149 83.8414C64.3515 83.6467 64.1569 83.4914 63.9307 83.3752C63.7044 83.259 63.4643 83.1907 63.2106 83.1711C62.9568 83.1513 62.7091 83.1815 62.4676 83.2614C57.9464 84.9628 53.2695 85.8354 48.4369 85.8793C47.7194 85.8799 47.0025 85.8618 46.2859 85.8249C45.5694 85.788 44.8543 85.7324 44.1408 85.6578C43.4273 85.5832 42.7161 85.4898 42.0074 85.378C41.2987 85.2661 40.5935 85.1356 39.8918 84.9866C39.1901 84.8377 38.4928 84.6702 37.8 84.4845C37.107 84.2991 36.4196 84.0953 35.7376 83.8736C35.0555 83.6517 34.3796 83.4123 33.7102 83.1549C33.0408 82.8975 32.3788 82.6228 31.7239 82.3307C31.0692 82.0387 30.4222 81.7294 29.7839 81.4035C29.1454 81.0772 28.516 80.7348 27.8955 80.3754C27.2753 80.0161 26.6649 79.6409 26.0643 79.2496C25.4638 78.8583 24.8741 78.4516 24.2951 78.0293C23.7162 77.607 23.1488 77.1697 22.5931 76.7176C22.0372 76.2655 21.4937 75.7993 20.9627 75.3185C20.4314 74.8379 19.9133 74.3437 19.4085 73.8356C18.9035 73.3279 18.4124 72.807 17.9348 72.2733C17.4576 71.7397 16.9947 71.1936 16.5461 70.6354C16.0978 70.0775 15.6644 69.5079 15.246 68.927C14.8278 68.3464 14.425 67.7548 14.0381 67.1528C13.6509 66.5507 13.2803 65.9389 12.9256 65.3175C12.571 64.696 12.233 64.0655 11.9117 63.4265C11.6619 62.9289 11.4311 62.4225 11.2017 61.9152H6.98086C7.12624 62.2722 7.26192 62.6328 7.4166 62.986C7.73117 63.7037 8.06433 64.4127 8.41648 65.1129C8.7687 65.8133 9.13884 66.5035 9.52744 67.1841C9.91624 67.8649 10.3224 68.5349 10.7465 69.1941C11.1707 69.8535 11.612 70.5011 12.0705 71.1374C12.5288 71.7735 13.004 72.397 13.4954 73.0081C13.9868 73.6193 14.494 74.217 15.0172 74.8014C15.5404 75.386 16.0786 75.9561 16.6318 76.5122C17.1854 77.0684 17.7531 77.6096 18.335 78.1359C18.917 78.6621 19.5126 79.1727 20.1216 79.6677C20.7306 80.1624 21.3525 80.6411 21.9868 81.1032C22.6212 81.5656 23.2675 82.0107 23.9254 82.4391C24.5834 82.8672 25.2524 83.2779 25.9321 83.6711C26.6119 84.064 27.3016 84.439 28.0012 84.7957C28.7008 85.1524 29.4093 85.4904 30.1269 85.8101C30.8443 86.1296 31.57 86.43 32.3034 86.7113C33.0369 86.9928 33.7773 87.2544 34.5246 87.4968C35.2718 87.7393 36.0252 87.9618 36.7842 88.1648C37.5433 88.3676 38.3073 88.5501 39.0762 88.7129C39.8449 88.8753 40.6175 89.0177 41.3936 89.1396C42.1702 89.2616 42.9492 89.363 43.7307 89.4438C44.5124 89.5249 45.2958 89.5851 46.0806 89.6249C46.8657 89.6648 47.6511 89.6838 48.4369 89.6824C53.7301 89.6372 58.8497 88.6754 63.7958 86.7966C64.0254 86.7222 64.2307 86.6056 64.4115 86.4461C64.5922 86.2867 64.7337 86.0981 64.8356 85.8799C64.9378 85.6619 64.9918 85.4328 64.998 85.1923C65.0044 84.9519 64.9624 84.7201 64.8718 84.4971C64.7972 84.2546 64.6782 84.0362 64.5149 83.8414Z" fill="#00A357"></path><path d="M39.4062 0C38.5714 0 37.8906 0.678087 37.8906 1.50955V4.26981C33.2548 5.39011 28.9033 7.22435 24.9782 9.64793C24.9722 9.64793 24.9722 9.64793 24.9664 9.65386C24.0012 10.2436 23.0658 10.8748 22.154 11.5411C22.1483 11.5471 22.1422 11.5471 22.1422 11.5531C11.4619 19.3434 4.54681 31.7516 4.54681 45.7344V51.3841C1.97743 51.7499 0 53.9554 0 56.6152C0 59.5342 2.37392 61.8993 5.30475 61.8993H91.6953C94.6259 61.8993 97 59.5342 97 56.6152C97 53.9554 95.0226 51.7499 92.4532 51.3841V45.7344C92.4532 31.7516 85.5381 19.3434 74.8577 11.5531C74.8577 11.5471 74.8518 11.5471 74.8458 11.5411C73.9342 10.8748 72.9986 10.2436 72.0334 9.65386C72.0276 9.64793 72.0276 9.64793 72.0219 9.64793C68.0965 7.22435 63.7451 5.39011 59.1093 4.26981V1.50955C59.1093 0.678087 58.4284 0 57.5938 0H39.4062ZM40.9217 34.7241V3.01924H56.0781V34.7241C56.0781 36.3929 54.7223 37.7433 53.047 37.7433H43.953C42.2775 37.7433 40.9217 36.3929 40.9217 34.7241ZM53.047 40.7628C56.3978 40.7628 59.1093 38.0619 59.1093 34.7241V7.3834C62.8865 8.36831 66.4566 9.86034 69.7187 11.7828V31.7044C69.7187 33.5797 72.4716 33.7744 72.7322 31.9169L75.0826 15.5515C83.8626 22.8347 89.4219 33.6565 89.4219 45.7344V51.3312H83.4481C83.1405 51.3312 82.8383 51.2838 82.5424 51.1954L70.4233 47.4212C69.1032 47.0084 67.7354 46.8018 66.3561 46.8018H30.644C29.2646 46.8018 27.8968 47.0084 26.5765 47.4212L14.4574 51.1954C14.1617 51.2838 13.8596 51.3312 13.5518 51.3312H7.57809V45.7344C7.57809 33.6565 13.1372 22.8347 21.9175 15.5515L24.2676 31.9169C24.5281 33.7744 27.2812 33.5797 27.2812 31.7044V11.7828C30.5435 9.86034 34.1135 8.36831 37.8906 7.3834V34.7241C37.8906 38.0619 40.6021 40.7628 43.953 40.7628H53.047ZM3.03114 56.6152C3.03114 55.3648 4.04941 54.3504 5.30475 54.3504H13.5518C14.1673 54.3504 14.7773 54.2563 15.3632 54.0735L27.4826 50.3048C28.5069 49.9805 29.5723 49.8212 30.644 49.8212H66.3561C67.4275 49.8212 68.4932 49.9805 69.5175 50.3048L81.6366 54.0735C82.2226 54.2563 82.8323 54.3504 83.4481 54.3504H91.6953C92.9506 54.3504 93.9689 55.3648 93.9689 56.6152C93.9689 57.8655 92.9506 58.8798 91.6953 58.8798H5.30475C4.04941 58.8798 3.03114 57.8655 3.03114 56.6152Z" fill="#6B6C6E"></path></svg>