<svg xmlns="http://www.w3.org/2000/svg" xmlns:xlink="http://www.w3.org/1999/xlink" id="Camada_1" x="0px" y="0px" viewBox="0 0 355 62.5" style="enable-background:new 0 0 355 62.5;" xml:space="preserve"><style type="text/css">	.st0{fill:#666666;}</style><g>	<polygon class="st0" points="13.88,28.99 13.88,21.93 19.92,21.93 19.92,18.93 13.88,18.93 13.88,15.93 19.08,15.93 19.08,12.91   10.53,12.91 10.53,28.99  "></polygon>	<polygon class="st0" points="38.33,28.99 38.33,25.97 31.7,25.97 31.7,21.93 37.75,21.93 37.75,18.93 31.7,18.93 31.7,15.93   36.9,15.93 36.9,12.91 28.36,12.91 28.36,28.99  "></polygon>	<path class="st0" d="M50.32,23.18v-7.25h2.03c2.29,0,3.45,1.6,3.45,3.56c0,2.4-1.45,3.69-4.1,3.69H50.32z M52.01,26.21l2.63,2.78  h4.45l-3.48-3.71c2.24-1.04,3.63-3.15,3.63-6.04c0-3.5-2.89-6.32-6.67-6.32h-5.59v16.08h3.35v-2.78H52.01z"></path>	<polygon class="st0" points="79.24,22.21 67.8,12.61 67.8,28.99 71.15,28.99 71.15,19.75 82.59,29.27 82.59,12.91 79.24,12.91  "></polygon>	<path class="st0" d="M98.6,18.8l2.46,5.01h-4.88L98.6,18.8z M103.58,28.99h3.65l-8.5-16.36l-8.48,16.36h3.45l1.04-2.16h7.79  L103.58,28.99z"></path>	<polygon class="st0" points="126.33,22.21 114.89,12.61 114.89,28.99 118.23,28.99 118.23,19.75 129.67,29.27 129.67,12.91   126.33,12.91  "></polygon>	<path class="st0" d="M142.34,25.97V15.93h3.17c2.81,0,4.99,2.09,4.99,5.01c0,2.89-2.18,5.03-4.96,5.03H142.34z M138.99,12.91v16.08  h6.54c4.62,0,8.4-3.43,8.4-8.05c0-4.58-3.78-8.03-8.42-8.03H138.99z"></path>	<path class="st0" d="M170.22,15.82c2.72,0,4.9,2.29,4.9,5.12c0,2.87-2.16,5.12-4.88,5.12c-2.76,0-4.9-2.24-4.9-5.12  C165.34,18.11,167.48,15.82,170.22,15.82z M170.24,29.27c4.6,0,8.31-3.73,8.31-8.33c0-4.6-3.71-8.31-8.33-8.31  c-4.6,0-8.31,3.71-8.31,8.31C161.91,25.54,165.62,29.27,170.24,29.27z"></path>	<path class="st0" d="M205.89,18.91v-2.98h1.68c0.93,0,1.81,0.26,1.81,1.49c0,0.67-0.19,1.49-1.81,1.49H205.89z M205.89,25.97v-4.14  h2.37c1.38,0,2.16,0.8,2.16,2.09c0,1.25-0.78,2.05-2.16,2.05H205.89z M208.15,28.99c2.96,0,5.7-1.9,5.7-5.18  c0-1.55-0.73-2.94-2.18-3.93c0.78-0.71,1.14-1.6,1.14-2.72c0-3-2.14-4.25-5.12-4.25h-5.16v16.08H208.15z"></path>	<path class="st0" d="M229.19,18.8l2.46,5.01h-4.88L229.19,18.8z M234.18,28.99h3.65l-8.5-16.36l-8.48,16.36h3.45l1.04-2.16h7.79  L234.18,28.99z"></path>	<path class="st0" d="M248.83,23.18v-7.25h2.03c2.29,0,3.45,1.6,3.45,3.56c0,2.4-1.45,3.69-4.1,3.69H248.83z M250.51,26.21  l2.63,2.78h4.45l-3.48-3.71c2.24-1.04,3.63-3.15,3.63-6.04c0-3.5-2.89-6.32-6.67-6.32h-5.59v16.08h3.35v-2.78H250.51z"></path>	<path class="st0" d="M269.65,18.91v-2.98h1.68c0.93,0,1.81,0.26,1.81,1.49c0,0.67-0.19,1.49-1.81,1.49H269.65z M269.65,25.97v-4.14  h2.37c1.38,0,2.16,0.8,2.16,2.09c0,1.25-0.78,2.05-2.16,2.05H269.65z M271.92,28.99c2.96,0,5.7-1.9,5.7-5.18  c0-1.55-0.73-2.94-2.18-3.93c0.78-0.71,1.14-1.6,1.14-2.72c0-3-2.14-4.25-5.12-4.25h-5.16v16.08H271.92z"></path>	<path class="st0" d="M293.91,15.82c2.72,0,4.9,2.29,4.9,5.12c0,2.87-2.16,5.12-4.88,5.12c-2.76,0-4.9-2.24-4.9-5.12  C289.03,18.11,291.17,15.82,293.91,15.82z M293.93,29.27c4.6,0,8.31-3.73,8.31-8.33c0-4.6-3.71-8.31-8.33-8.31  c-4.6,0-8.31,3.71-8.31,8.31C285.6,25.54,289.31,29.27,293.93,29.27z"></path>	<path class="st0" d="M314.75,21.87c1.55,0.17,2.42,0.97,2.42,2.27c0,1.04-0.86,1.92-1.96,1.92c-0.95,0-1.71-0.24-2.44-1.17  L310,26.92c1.53,1.68,3.37,2.35,5.2,2.35c2.83,0,5.44-2.24,5.44-5.37c0-3.11-2.27-4.96-5.01-5.14c-1.71-0.11-2.24-0.78-2.24-1.51  c0-0.89,0.6-1.42,1.49-1.42c0.56,0,1.27,0.35,1.71,0.8l2.63-1.92c-1.23-1.47-2.74-2.07-4.34-2.07c-2.22,0-4.73,1.92-4.73,4.64  C310.15,19.79,311.97,21.54,314.75,21.87z"></path>	<path class="st0" d="M335.83,18.8l2.46,5.01h-4.88L335.83,18.8z M340.82,28.99h3.65l-8.5-16.36l-8.48,16.36h3.45l1.04-2.16h7.79  L340.82,28.99z"></path>	<path class="st0" d="M74.62,43.56c0.94,0.1,1.46,0.59,1.46,1.37c0,0.63-0.52,1.16-1.19,1.16c-0.57,0-1.03-0.14-1.47-0.7l-1.67,1.23  c0.93,1.02,2.03,1.42,3.14,1.42c1.71,0,3.29-1.36,3.29-3.25c0-1.88-1.37-3-3.02-3.1c-1.03-0.07-1.36-0.47-1.36-0.91  c0-0.53,0.37-0.86,0.9-0.86c0.34,0,0.77,0.21,1.03,0.48l1.59-1.16c-0.74-0.89-1.66-1.25-2.62-1.25c-1.34,0-2.86,1.16-2.86,2.8  C71.84,42.31,72.94,43.36,74.62,43.56z"></path>	<polygon class="st0" points="86.47,47.86 86.47,46.03 82.47,46.03 82.47,43.6 86.12,43.6 86.12,41.78 82.47,41.78 82.47,39.97   85.61,39.97 85.61,38.15 80.45,38.15 80.45,47.86  "></polygon>	<path class="st0" d="M98.45,42.55h-4.98v1.8h2.63c-0.43,1.13-1.51,1.73-2.69,1.73c-1.63,0-2.92-1.37-2.92-3.08  c0-1.72,1.29-3.1,2.92-3.1c1.15,0,2.15,0.65,2.66,1.6l1.62-1.17c-0.87-1.42-2.48-2.36-4.29-2.36c-2.76,0-4.98,2.26-4.98,5.03  c0,2.78,2.22,5.02,4.99,5.02c2.79,0,5.03-2.31,5.03-5.18V42.55z"></path>	<path class="st0" d="M104.88,48.03c2.58,0,4.16-1.67,4.16-4.5v-5.38h-1.99v5.55c0,1.46-0.65,2.39-2.16,2.39  c-1.43,0-2.18-0.86-2.18-2.39v-5.55h-2.02v5.22C100.69,46.06,102.04,48.03,104.88,48.03z"></path>	<path class="st0" d="M113.73,44.35v-4.38h1.23c1.38,0,2.09,0.96,2.09,2.15c0,1.45-0.87,2.23-2.48,2.23H113.73z M114.75,46.18  l1.59,1.68h2.69l-2.1-2.24c1.36-0.63,2.19-1.9,2.19-3.65c0-2.11-1.75-3.82-4.03-3.82h-3.38v9.71h2.02v-1.68H114.75z"></path>	<path class="st0" d="M125.46,41.71l1.49,3.02H124L125.46,41.71z M128.47,47.86h2.2l-5.14-9.88l-5.12,9.88h2.09l0.63-1.3h4.71  L128.47,47.86z"></path>	<polygon class="st0" points="139.34,43.77 132.43,37.96 132.43,47.86 134.45,47.86 134.45,42.28 141.36,48.03 141.36,38.15   139.34,38.15  "></polygon>	<path class="st0" d="M151.67,43.57c-0.27,1.46-1.5,2.52-2.96,2.52c-1.63,0-2.92-1.37-2.92-3.08c0-1.72,1.29-3.1,2.92-3.1  c1,0,1.99,0.51,2.7,1.55l1.58-1.12c-0.87-1.42-2.48-2.36-4.29-2.36c-2.76,0-4.98,2.26-4.98,5.03c0,2.37,1.63,4.38,3.86,4.88  l-1.33,2.01h4.75v-1.58h-1.93l0.26-0.33c2.29-0.27,4.13-2.14,4.39-4.42H151.67z"></path>	<path class="st0" d="M160.11,41.71l1.49,3.02h-2.95L160.11,41.71z M163.13,47.86h2.2l-5.14-9.88l-5.12,9.88h2.09l0.63-1.3h4.71  L163.13,47.86z"></path>	<path class="st0" d="M175.51,46.03v-6.06h1.92c1.69,0,3.01,1.26,3.01,3.02c0,1.75-1.32,3.04-3,3.04H175.51z M173.48,38.15v9.71  h3.95c2.79,0,5.07-2.07,5.07-4.86c0-2.76-2.28-4.85-5.08-4.85H173.48z"></path>	<path class="st0" d="M189.48,39.91c1.64,0,2.96,1.38,2.96,3.09c0,1.73-1.3,3.09-2.95,3.09c-1.67,0-2.96-1.36-2.96-3.09  C186.53,41.29,187.82,39.91,189.48,39.91z M189.49,48.03c2.78,0,5.02-2.26,5.02-5.03s-2.24-5.02-5.03-5.02  c-2.78,0-5.02,2.24-5.02,5.02S186.7,48.03,189.49,48.03z"></path>	<polygon class="st0" points="207.01,47.86 207.01,39.97 209.56,39.97 209.56,38.15 202.59,38.15 202.59,39.97 204.98,39.97   204.98,47.86  "></polygon>	<path class="st0" d="M213.66,44.35v-4.38h1.23c1.38,0,2.09,0.96,2.09,2.15c0,1.45-0.87,2.23-2.48,2.23H213.66z M214.68,46.18  l1.59,1.68h2.69l-2.1-2.24c1.36-0.63,2.19-1.9,2.19-3.65c0-2.11-1.75-3.82-4.03-3.82h-3.38v9.71h2.02v-1.68H214.68z"></path>	<path class="st0" d="M225.39,41.71l1.49,3.02h-2.95L225.39,41.71z M228.41,47.86h2.2l-5.14-9.88l-5.12,9.88h2.09l0.63-1.3h4.71  L228.41,47.86z"></path>	<path class="st0" d="M234.39,41.77v-1.8h1.02c0.56,0,1.1,0.16,1.1,0.9c0,0.4-0.12,0.9-1.1,0.9H234.39z M234.39,46.03v-2.5h1.43  c0.83,0,1.3,0.48,1.3,1.26c0,0.76-0.47,1.24-1.3,1.24H234.39z M235.75,47.86c1.79,0,3.44-1.15,3.44-3.13  c0-0.94-0.44-1.77-1.32-2.37c0.47-0.43,0.69-0.96,0.69-1.64c0-1.81-1.29-2.57-3.09-2.57h-3.12v9.71H235.75z"></path>	<path class="st0" d="M245.59,41.71l1.49,3.02h-2.95L245.59,41.71z M248.61,47.86h2.2l-5.14-9.88l-5.12,9.88h2.09l0.63-1.3h4.71  L248.61,47.86z"></path>	<polygon class="st0" points="252.57,38.15 252.57,47.86 258.5,47.86 258.5,46.03 254.59,46.03 254.59,38.15  "></polygon>	<polygon class="st0" points="260.53,38.15 260.53,47.86 262.55,47.86 262.55,43.6 267.01,43.6 267.01,47.86 269.03,47.86   269.03,38.15 267.01,38.15 267.01,41.78 262.55,41.78 262.55,38.15  "></polygon>	<path class="st0" d="M276.4,39.91c1.64,0,2.96,1.38,2.96,3.09c0,1.73-1.3,3.09-2.95,3.09c-1.67,0-2.96-1.36-2.96-3.09  C273.46,41.29,274.75,39.91,276.4,39.91z M276.42,48.03c2.78,0,5.02-2.26,5.02-5.03s-2.24-5.02-5.03-5.02  c-2.78,0-5.02,2.24-5.02,5.02S273.63,48.03,276.42,48.03z"></path></g></svg>