<svg xmlns="http://www.w3.org/2000/svg" width="242" height="50" viewBox="0 0 242 50" fill="none"><g clip-path="url(#clip0_2_977)"><path d="M71.3623 42.9705L78.5789 49.9497H70.6612L63.4707 42.9705H71.3623Z" fill="white"></path><path d="M116.865 0L84.0657 49.9497H77.0513L109.8 0H116.865Z" fill="white"></path><path d="M116.891 49.9497H109.875L77.0511 0.0251465H84.1421L92.0842 12.163L116.891 49.9497ZM125.426 29.625H128.759C128.964 30.2519 129.384 30.762 130.023 31.1586C130.663 31.5543 131.5 31.7522 132.538 31.7522C133.242 31.7522 133.788 31.6889 134.178 31.56C134.567 31.4302 134.834 31.2413 134.983 30.9931C135.13 30.7442 135.204 30.4628 135.204 30.1489C135.204 29.7621 135.084 29.4628 134.844 29.2512C134.602 29.0387 134.232 28.8692 133.732 28.7402C133.232 28.6113 132.595 28.4913 131.815 28.3802C131.037 28.2512 130.288 28.0939 129.564 27.9114C128.842 27.7257 128.205 27.4816 127.649 27.1791C127.093 26.875 126.653 26.4873 126.329 26.017C126.004 25.5474 125.844 24.9724 125.844 24.2896C125.844 23.6278 126.004 23.0374 126.329 22.5217C126.653 22.0067 127.106 21.5728 127.689 21.2241C128.274 20.8738 128.959 20.6053 129.747 20.422C130.533 20.2379 131.38 20.1447 132.289 20.1447C133.658 20.1447 134.797 20.3434 135.706 20.7391C136.612 21.1357 137.292 21.6888 137.748 22.3976C138.202 23.1072 138.429 23.9222 138.429 24.8435H135.234C135.084 24.1615 134.788 23.6684 134.344 23.3651C133.899 23.061 133.213 22.9085 132.289 22.9085C131.38 22.9085 130.694 23.0472 130.231 23.3221C129.771 23.6003 129.538 23.9782 129.538 24.4558C129.538 24.8435 129.681 25.1444 129.968 25.3544C130.254 25.5661 130.681 25.738 131.246 25.8669C131.812 25.9943 132.52 26.1329 133.372 26.2797C134.095 26.4281 134.784 26.5936 135.441 26.7785C136.098 26.9634 136.686 27.1969 137.205 27.4816C137.723 27.7687 138.136 28.1474 138.442 28.6153C138.748 29.0857 138.901 29.6785 138.901 30.3979C138.901 31.2818 138.645 32.0279 138.136 32.637C137.629 33.2444 136.9 33.7107 135.956 34.0319C135.011 34.3538 133.881 34.5168 132.566 34.5168C131.4 34.5168 130.394 34.3911 129.551 34.1422C128.708 33.8932 128.009 33.572 127.454 33.1763C126.899 32.7797 126.469 32.3564 126.162 31.9055C125.857 31.4538 125.647 31.0256 125.537 30.6201C125.426 30.2146 125.388 29.8837 125.426 29.625ZM79.8368 18.3695C79.8368 22.1835 78.9865 25.4493 77.3324 28.1417C76.2293 29.9356 74.7513 31.5057 72.9219 32.8008L72.5713 33.0498C70.2413 34.5947 67.4842 35.6684 64.4025 36.241L65.9556 37.7364C67.7589 39.48 69.5647 41.2269 71.368 42.9705H63.4756C61.6723 41.2269 59.8665 39.48 58.0876 37.7364L51.4727 31.3062H60.6932C63.0998 31.3062 65.5056 30.7328 67.8095 29.612C72.1955 27.4435 74.3241 23.7527 74.3241 18.3695C74.3241 12.9854 72.1955 9.32219 67.8095 7.15283C65.53 6.00692 63.1242 5.43274 60.6932 5.43274H49.7949V49.9497H44.3817V0.0729942H60.6932C63.8767 0.0729942 67.0831 0.870996 70.2919 2.41672C70.6669 2.61703 71.068 2.81491 71.4438 3.01603C73.9483 4.46119 75.9538 6.30536 77.3324 8.57366C78.9865 11.2661 79.8368 14.5562 79.8368 18.3695ZM9.24702 36.3164H38.688V30.9315H9.24702V36.3164ZM5.56373 5.48302V44.5916H38.8397V50H0.000488281V0.0251465H38.8397V5.48302H5.56373ZM228.526 29.625H231.859C232.063 30.2519 232.485 30.762 233.123 31.1586C233.762 31.5543 234.601 31.7522 235.637 31.7522C236.341 31.7522 236.888 31.6889 237.276 31.56C237.666 31.4302 237.934 31.2413 238.082 30.9931C238.229 30.7442 238.304 30.4628 238.304 30.1489C238.304 29.7621 238.183 29.4628 237.942 29.2512C237.702 29.0387 237.332 28.8692 236.832 28.7402C236.333 28.6113 235.694 28.4913 234.915 28.3802C234.138 28.2512 233.386 28.0939 232.665 27.9114C231.942 27.7257 231.303 27.4816 230.747 27.1791C230.191 26.875 229.752 26.4873 229.428 26.017C229.105 25.5474 228.941 24.9724 228.941 24.2896C228.941 23.6278 229.105 23.0374 229.428 22.5217C229.752 22.0067 230.207 21.5728 230.79 21.2241C231.373 20.8738 232.057 20.6053 232.846 20.422C233.632 20.2379 234.48 20.1447 235.387 20.1447C236.757 20.1447 237.897 20.3434 238.804 20.7391C239.712 21.1357 240.394 21.6888 240.846 22.3976C241.3 23.1072 241.526 23.9222 241.526 24.8435H238.332C238.183 24.1615 237.886 23.6684 237.443 23.3651C236.999 23.061 236.313 22.9085 235.387 22.9085C234.48 22.9085 233.795 23.0472 233.331 23.3221C232.868 23.6003 232.636 23.9782 232.636 24.4558C232.636 24.8435 232.78 25.1444 233.067 25.3544C233.355 25.5661 233.779 25.738 234.345 25.8669C234.911 25.9943 235.617 26.1329 236.47 26.2797C237.192 26.4281 237.882 26.5936 238.542 26.7785C239.198 26.9634 239.787 27.1969 240.304 27.4816C240.824 27.7687 241.236 28.1474 241.543 28.6153C241.846 29.0857 242 29.6785 242 30.3979C242 31.2818 241.744 32.0279 241.236 32.637C240.727 33.2444 240 33.7107 239.054 34.0319C238.111 34.3538 236.98 34.5168 235.665 34.5168C234.498 34.5168 233.493 34.3911 232.65 34.1422C231.807 33.8932 231.107 33.572 230.553 33.1763C229.998 32.7797 229.567 32.3564 229.261 31.9055C228.955 31.4538 228.748 31.0256 228.636 30.6201C228.526 30.2146 228.488 29.8837 228.526 29.625ZM217.662 31.7522C218.625 31.7522 219.492 31.5835 220.26 31.2413C221.029 30.9015 221.636 30.4036 222.079 29.7483C222.525 29.0946 222.745 28.2974 222.745 27.3583C222.745 26.4184 222.525 25.6123 222.079 24.94C221.636 24.2677 221.033 23.7568 220.274 23.4056C219.514 23.0569 218.644 22.8817 217.662 22.8817C216.7 22.8817 215.829 23.0569 215.05 23.4056C214.273 23.7568 213.658 24.2636 213.204 24.9262C212.749 25.5896 212.522 26.3998 212.522 27.3583C212.522 28.2974 212.745 29.0946 213.189 29.7483C213.635 30.4036 214.245 30.9015 215.024 31.2413C215.8 31.5835 216.68 31.7522 217.662 31.7522ZM217.662 34.5168C215.92 34.5168 214.388 34.2403 213.064 33.688C211.74 33.1349 210.708 32.3288 209.967 31.2689C209.227 30.2089 208.855 28.9057 208.855 27.3583C208.855 25.811 209.227 24.498 209.967 23.4194C210.708 22.3424 211.74 21.5266 213.064 20.9735C214.388 20.422 215.92 20.1447 217.662 20.1447C219.404 20.1447 220.927 20.422 222.233 20.9735C223.539 21.5266 224.561 22.3424 225.303 23.4194C226.043 24.498 226.413 25.811 226.413 27.3583C226.413 28.9057 226.043 30.2089 225.303 31.2689C224.561 32.3288 223.539 33.1349 222.233 33.688C220.927 34.2403 219.404 34.5168 217.662 34.5168ZM207.299 23.4056C206.263 23.4056 205.364 23.6043 204.604 24.0009C203.845 24.3966 203.235 24.88 202.77 25.4509C202.309 26.0227 201.983 26.5757 201.799 27.1102L201.77 25.5896C201.789 25.3674 201.864 25.0422 201.993 24.6083C202.122 24.1769 202.317 23.7049 202.576 23.2004C202.836 22.6928 203.178 22.2054 203.605 21.7334C204.031 21.2646 204.548 20.8827 205.161 20.5867C205.773 20.2931 206.484 20.1447 207.299 20.1447V23.4056ZM198.382 20.4504H201.993V34.1843H198.382V20.4504ZM195.104 34.1843H191.493V20.4504H195.104V34.1843ZM191.686 27.5797L191.713 28.5188C191.676 28.7767 191.583 29.1506 191.436 29.638C191.287 30.1262 191.06 30.646 190.757 31.1991C190.45 31.7522 190.057 32.2826 189.575 32.7894C189.091 33.2963 188.499 33.7107 187.796 34.0319C187.093 34.3538 186.26 34.5168 185.297 34.5168C184.538 34.5168 183.791 34.4236 183.058 34.2403C182.329 34.0562 181.666 33.7472 181.073 33.3133C180.48 32.8819 180.008 32.2956 179.656 31.56C179.304 30.822 179.128 29.8934 179.128 28.767V20.4504H182.739V28.1604C182.739 29.0444 182.885 29.7377 183.172 30.247C183.459 30.7547 183.879 31.1067 184.435 31.311C184.991 31.5138 185.648 31.6135 186.407 31.6135C187.409 31.6135 188.269 31.3986 188.991 30.9639C189.714 30.5333 190.301 30.0029 190.757 29.376C191.209 28.75 191.52 28.1515 191.686 27.5797ZM167.378 29.4863C168.172 29.4863 168.872 29.3574 169.474 29.0987C170.076 28.8424 170.544 28.4694 170.877 27.9795C171.21 27.4913 171.377 26.9074 171.377 26.2254C171.377 25.5255 171.21 24.9262 170.877 24.4283C170.544 23.9319 170.081 23.5484 169.489 23.2815C168.895 23.0147 168.192 22.8817 167.378 22.8817C166.58 22.8817 165.876 23.0147 165.264 23.2815C164.654 23.5484 164.181 23.9319 163.848 24.4283C163.515 24.9262 163.348 25.5255 163.348 26.2254C163.348 26.9074 163.515 27.4913 163.848 27.9795C164.181 28.4694 164.651 28.8424 165.252 29.0987C165.853 29.3574 166.563 29.4863 167.378 29.4863ZM172.017 39.8506V39.1864C172.017 38.3398 171.744 37.7494 171.197 37.4185C170.65 37.0876 169.904 36.9206 168.959 36.9206H164.654C163.822 36.9206 163.122 36.8565 162.556 36.7267C161.992 36.5978 161.542 36.4145 161.21 36.1737C160.876 35.9344 160.634 35.6538 160.487 35.3319C160.338 35.0091 160.264 34.6644 160.264 34.2946C160.264 33.5591 160.505 33.0019 160.986 32.624C161.467 32.2461 162.116 31.9914 162.932 31.8625C163.745 31.7336 164.644 31.706 165.627 31.7798L167.378 32.0847C166.21 32.1204 165.344 32.2177 164.78 32.375C164.214 32.5307 163.932 32.8397 163.932 33.3004C163.932 33.5753 164.042 33.7934 164.265 33.9491C164.488 34.1057 164.802 34.1843 165.21 34.1843H169.738C170.978 34.1843 172.04 34.3173 172.919 34.5858C173.798 34.8518 174.471 35.3043 174.934 35.9409C175.397 36.5743 175.627 37.4461 175.627 38.5523V39.8506H172.017ZM167.378 32.0847C165.876 32.0847 164.557 31.8584 163.418 31.4084C162.279 30.9566 161.394 30.2876 160.764 29.4036C160.135 28.5188 159.819 27.4508 159.819 26.1962C159.819 24.9635 160.126 23.8955 160.736 22.9912C161.349 22.0894 162.223 21.3879 163.362 20.8908C164.501 20.3928 165.84 20.1447 167.378 20.1447C167.803 20.1447 168.215 20.1714 168.612 20.2282C169.011 20.2834 169.405 20.3572 169.794 20.4504L176.767 20.4764V23.1859C175.823 23.2037 174.864 23.0902 173.891 22.8396C172.919 22.5906 172.063 22.3189 171.322 22.0245L171.237 21.8315C171.867 22.1259 172.462 22.49 173.015 22.9223C173.571 23.3553 174.021 23.8533 174.365 24.4137C174.707 24.9757 174.877 25.6261 174.877 26.3641C174.877 27.5611 174.573 28.5878 173.961 29.4458C173.351 30.3022 172.485 30.9566 171.363 31.4084C170.241 31.8584 168.915 32.0847 167.378 32.0847ZM149.68 22.8817C148.345 22.8817 147.263 23.1704 146.429 23.7527C145.596 24.331 145.058 25.0454 144.818 25.8937H154.208C154.116 24.9724 153.675 24.2401 152.889 23.6968C152.1 23.1534 151.031 22.8817 149.68 22.8817ZM154.235 29.625H157.735C157.589 30.5633 157.196 31.4035 156.556 32.1399C155.917 32.8762 155.051 33.4569 153.957 33.8802C152.866 34.3044 151.533 34.5168 149.957 34.5168C148.197 34.5168 146.642 34.2354 145.291 33.6734C143.939 33.1114 142.882 32.2956 142.122 31.2267C141.363 30.1594 140.984 28.8692 140.984 27.3583C140.984 25.8475 141.353 24.5523 142.094 23.4754C142.836 22.3976 143.869 21.5728 145.194 21.0027C146.517 20.4302 148.068 20.1447 149.845 20.1447C151.662 20.1447 153.169 20.4302 154.375 21.0027C155.577 21.5728 156.472 22.4341 157.056 23.5849C157.639 24.7373 157.884 26.2084 157.792 27.9925H144.623C144.714 28.694 144.98 29.3298 145.414 29.9007C145.85 30.4725 146.443 30.9234 147.192 31.2559C147.943 31.5876 148.838 31.7522 149.875 31.7522C151.021 31.7522 151.982 31.5543 152.749 31.1586C153.518 30.762 154.014 30.2519 154.235 29.625Z" fill="white"></path></g><defs><clipPath id="clip0_2_977"><rect width="242" height="50" fill="white"></rect></clipPath></defs></svg>