<svg xmlns="http://www.w3.org/2000/svg" width="288" height="60" viewBox="0 0 288 60" fill="none"><g clip-path="url(#clip0_2_956)"><path d="M84.9268 51.5645L93.5151 59.9396H84.0924L75.5352 51.5645H84.9268Z" fill="url(#paint0_linear_2_956)"></path><path d="M139.079 0L100.045 59.9397H91.6973L130.671 0H139.079Z" fill="url(#paint1_linear_2_956)"></path><path d="M139.109 59.9398H130.761L91.6971 0.0302734H100.136L109.588 14.5958L139.109 59.9398ZM149.267 35.5501H153.234C153.477 36.3024 153.978 36.9145 154.738 37.3904C155.499 37.8653 156.496 38.1027 157.732 38.1027C158.569 38.1027 159.219 38.0268 159.683 37.8721C160.145 37.7164 160.464 37.4896 160.641 37.1919C160.816 36.8931 160.904 36.5554 160.904 36.1788C160.904 35.7146 160.762 35.3555 160.475 35.1015C160.187 34.8465 159.747 34.6431 159.152 34.4884C158.557 34.3336 157.799 34.1896 156.871 34.0563C155.944 33.9016 155.053 33.7128 154.192 33.4938C153.333 33.2709 152.574 32.978 151.912 32.615C151.251 32.2501 150.728 31.7849 150.342 31.2205C149.955 30.657 149.764 29.967 149.764 29.1476C149.764 28.3535 149.955 27.645 150.342 27.0261C150.728 26.4081 151.267 25.8875 151.961 25.469C152.656 25.0486 153.471 24.7265 154.41 24.5065C155.345 24.2856 156.353 24.1737 157.435 24.1737C159.064 24.1737 160.42 24.4121 161.502 24.8871C162.58 25.3629 163.389 26.0266 163.931 26.8772C164.472 27.7287 164.741 28.7068 164.741 29.8123H160.939C160.762 28.9938 160.408 28.4022 159.881 28.0382C159.351 27.6732 158.535 27.4903 157.435 27.4903C156.353 27.4903 155.537 27.6567 154.986 27.9866C154.438 28.3204 154.161 28.7739 154.161 29.3471C154.161 29.8123 154.331 30.1733 154.673 30.4254C155.013 30.6794 155.521 30.8857 156.194 31.0404C156.867 31.1932 157.709 31.3596 158.723 31.5358C159.584 31.7139 160.405 31.9124 161.186 32.1343C161.968 32.3562 162.668 32.6364 163.285 32.978C163.902 33.3225 164.393 33.777 164.757 34.3385C165.122 34.903 165.303 35.6143 165.303 36.4775C165.303 37.5383 164.999 38.4336 164.393 39.1645C163.79 39.8934 162.922 40.453 161.799 40.8383C160.674 41.2247 159.33 41.4203 157.765 41.4203C156.376 41.4203 155.179 41.2694 154.177 40.9707C153.174 40.6719 152.341 40.2865 151.68 39.8116C151.02 39.3358 150.508 38.8278 150.144 38.2867C149.78 37.7446 149.53 37.2308 149.399 36.7442C149.267 36.2576 149.222 35.8606 149.267 35.5501ZM95.0123 22.0434C95.0123 26.6203 94.0004 30.5392 92.0318 33.7702C90.7191 35.9228 88.9601 37.8069 86.783 39.3611L86.3658 39.6598C83.5929 41.5137 80.3117 42.8022 76.6443 43.4893L78.4925 45.2838C80.6386 47.3761 82.7876 49.4723 84.9337 51.5646H75.5411C73.395 49.4723 71.246 47.3761 69.129 45.2838L61.2567 37.5675H72.2298C75.0939 37.5675 77.957 36.8795 80.6988 35.5345C85.9185 32.9323 88.4517 28.5034 88.4517 22.0434C88.4517 15.5825 85.9185 11.1867 80.6988 8.58349C77.9861 7.2084 75.123 6.51939 72.2298 6.51939H59.26V59.9398H52.8178V0.0876906H72.2298C76.0185 0.0876906 79.8343 1.04529 83.6531 2.90016C84.0994 3.14053 84.5767 3.37799 85.024 3.61934C88.0045 5.35353 90.3912 7.56652 92.0318 10.2885C94.0004 13.5194 95.0123 17.4676 95.0123 22.0434ZM11.0046 43.5798H46.0419V37.1179H11.0046V43.5798ZM6.62121 6.57973V53.51H46.2223V60.0001H0.000488281V0.0302734H46.2223V6.57973H6.62121ZM271.964 35.5501H275.931C276.174 36.3024 276.677 36.9145 277.435 37.3904C278.196 37.8653 279.194 38.1027 280.427 38.1027C281.265 38.1027 281.916 38.0268 282.378 37.8721C282.842 37.7164 283.161 37.4896 283.337 37.1919C283.513 36.8931 283.602 36.5554 283.602 36.1788C283.602 35.7146 283.457 35.3555 283.171 35.1015C282.885 34.8465 282.444 34.6431 281.85 34.4884C281.256 34.3336 280.495 34.1896 279.568 34.0563C278.643 33.9016 277.749 33.7128 276.891 33.4938C276.03 33.2709 275.27 32.978 274.608 32.615C273.946 32.2501 273.423 31.7849 273.038 31.2205C272.654 30.657 272.459 29.967 272.459 29.1476C272.459 28.3535 272.654 27.645 273.038 27.0261C273.423 26.4081 273.966 25.8875 274.659 25.469C275.353 25.0486 276.167 24.7265 277.105 24.5065C278.042 24.2856 279.051 24.1737 280.13 24.1737C281.76 24.1737 283.117 24.4121 284.197 24.8871C285.277 25.3629 286.089 26.0266 286.627 26.8772C287.166 27.7287 287.436 28.7068 287.436 29.8123H283.635C283.457 28.9938 283.104 28.4022 282.576 28.0382C282.049 27.6732 281.232 27.4903 280.13 27.4903C279.051 27.4903 278.235 27.6567 277.684 27.9866C277.133 28.3204 276.856 28.7739 276.856 29.3471C276.856 29.8123 277.027 30.1733 277.368 30.4254C277.712 30.6794 278.216 30.8857 278.89 31.0404C279.563 31.1932 280.404 31.3596 281.419 31.5358C282.279 31.7139 283.099 31.9124 283.884 32.1343C284.665 32.3562 285.367 32.6364 285.982 32.978C286.6 33.3225 287.091 33.777 287.456 34.3385C287.817 34.903 288 35.6143 288 36.4775C288 37.5383 287.695 38.4336 287.091 39.1645C286.484 39.8934 285.62 40.453 284.495 40.8383C283.372 41.2247 282.025 41.4203 280.46 41.4203C279.072 41.4203 277.876 41.2694 276.873 40.9707C275.869 40.6719 275.037 40.2865 274.377 39.8116C273.716 39.3358 273.204 38.8278 272.839 38.2867C272.476 37.7446 272.229 37.2308 272.095 36.7442C271.964 36.2576 271.92 35.8606 271.964 35.5501ZM259.036 38.1027C260.182 38.1027 261.213 37.9003 262.127 37.4896C263.043 37.0819 263.765 36.4844 264.293 35.698C264.824 34.9137 265.085 33.957 265.085 32.8301C265.085 31.7022 264.824 30.7349 264.293 29.9281C263.765 29.1213 263.048 28.5082 262.145 28.0868C261.24 27.6684 260.204 27.4582 259.036 27.4582C257.89 27.4582 256.854 27.6684 255.928 28.0868C255.003 28.5082 254.271 29.1165 253.73 29.9115C253.189 30.7076 252.919 31.6798 252.919 32.8301C252.919 33.957 253.184 34.9137 253.713 35.698C254.243 36.4844 254.969 37.0819 255.897 37.4896C256.82 37.9003 257.867 38.1027 259.036 38.1027ZM259.036 41.4203C256.963 41.4203 255.14 41.0884 253.564 40.4257C251.988 39.762 250.759 38.7947 249.878 37.5227C248.997 36.2508 248.555 34.6869 248.555 32.8301C248.555 30.9733 248.997 29.3977 249.878 28.1034C250.759 26.811 251.988 25.832 253.564 25.1683C255.14 24.5065 256.963 24.1737 259.036 24.1737C261.109 24.1737 262.921 24.5065 264.475 25.1683C266.029 25.832 267.246 26.811 268.129 28.1034C269.01 29.3977 269.45 30.9733 269.45 32.8301C269.45 34.6869 269.01 36.2508 268.129 37.5227C267.246 38.7947 266.029 39.762 264.475 40.4257C262.921 41.0884 261.109 41.4203 259.036 41.4203ZM246.703 28.0868C245.47 28.0868 244.4 28.3253 243.495 28.8012C242.592 29.2761 241.866 29.8561 241.313 30.5412C240.764 31.2273 240.376 31.891 240.157 32.5323L240.123 30.7076C240.145 30.441 240.234 30.0507 240.389 29.5301C240.542 29.0123 240.774 28.4459 241.082 27.8406C241.391 27.2314 241.798 26.6466 242.307 26.0802C242.813 25.5177 243.429 25.0593 244.158 24.7041C244.887 24.3518 245.733 24.1737 246.703 24.1737V28.0868ZM236.091 24.5406H240.389V41.0213H236.091V24.5406ZM232.189 41.0213H227.892V24.5406H232.189V41.0213ZM228.122 33.0958L228.154 34.2227C228.111 34.5322 228 34.9808 227.824 35.5657C227.647 36.1515 227.377 36.7753 227.016 37.439C226.652 38.1027 226.183 38.7392 225.61 39.3474C225.034 39.9557 224.33 40.453 223.493 40.8383C222.656 41.2247 221.665 41.4203 220.519 41.4203C219.616 41.4203 218.727 41.3084 217.855 41.0884C216.986 40.8675 216.197 40.4967 215.492 39.9761C214.786 39.4584 214.224 38.7548 213.806 37.8721C213.387 36.9865 213.177 35.8722 213.177 34.5205V24.5406H217.474V33.7926C217.474 34.8533 217.648 35.6854 217.989 36.2965C218.331 36.9057 218.831 37.3281 219.492 37.5733C220.154 37.8166 220.936 37.9363 221.839 37.9363C223.032 37.9363 224.055 37.6784 224.915 37.1568C225.775 36.6401 226.474 36.0036 227.016 35.2513C227.555 34.5001 227.924 33.7819 228.122 33.0958ZM199.194 35.3837C200.139 35.3837 200.971 35.229 201.688 34.9185C202.405 34.611 202.961 34.1633 203.358 33.5755C203.755 32.9897 203.952 32.289 203.952 31.4706C203.952 30.6307 203.755 29.9115 203.358 29.314C202.961 28.7184 202.41 28.2581 201.705 27.938C200.999 27.6178 200.162 27.4582 199.194 27.4582C198.244 27.4582 197.406 27.6178 196.678 27.938C195.952 28.2581 195.389 28.7184 194.993 29.314C194.597 29.9115 194.398 30.6307 194.398 31.4706C194.398 32.289 194.597 32.9897 194.993 33.5755C195.389 34.1633 195.948 34.611 196.663 34.9185C197.379 35.229 198.223 35.3837 199.194 35.3837ZM204.714 47.8208V47.0238C204.714 46.0078 204.389 45.2994 203.738 44.9023C203.088 44.5052 202.2 44.3048 201.075 44.3048H195.952C194.962 44.3048 194.128 44.2279 193.455 44.0722C192.784 43.9175 192.249 43.6975 191.853 43.4085C191.456 43.1214 191.168 42.7847 190.992 42.3983C190.815 42.011 190.728 41.5974 190.728 41.1536C190.728 40.271 191.014 39.6024 191.587 39.1489C192.159 38.6954 192.932 38.3898 193.902 38.2351C194.87 38.0804 195.939 38.0473 197.11 38.1358L199.194 38.5017C197.803 38.5446 196.773 38.6613 196.102 38.8501C195.428 39.037 195.092 39.4078 195.092 39.9605C195.092 40.2904 195.223 40.5522 195.488 40.7391C195.754 40.9269 196.128 41.0213 196.614 41.0213H202.002C203.478 41.0213 204.741 41.1809 205.788 41.503C206.834 41.8222 207.634 42.3652 208.185 43.1292C208.737 43.8892 209.011 44.9354 209.011 46.2628V47.8208H204.714ZM199.194 38.5017C197.406 38.5017 195.837 38.2302 194.481 37.6901C193.125 37.1481 192.072 36.3452 191.322 35.2844C190.573 34.2227 190.198 32.941 190.198 31.4355C190.198 29.9563 190.564 28.6746 191.289 27.5896C192.019 26.5074 193.059 25.6656 194.414 25.069C195.77 24.4715 197.363 24.1737 199.194 24.1737C199.699 24.1737 200.19 24.2058 200.662 24.274C201.137 24.3401 201.606 24.4287 202.068 24.5406L210.367 24.5717V27.8231C209.244 27.8445 208.102 27.7083 206.945 27.4076C205.788 27.1088 204.769 26.7828 203.887 26.4295L203.787 26.1979C204.536 26.5512 205.244 26.9881 205.903 27.5068C206.564 28.0265 207.1 28.624 207.508 29.2965C207.916 29.9709 208.119 30.7514 208.119 31.637C208.119 33.0734 207.757 34.3054 207.028 35.335C206.302 36.3627 205.271 37.1481 203.936 37.6901C202.601 38.2302 201.022 38.5017 199.194 38.5017ZM178.131 27.4582C176.543 27.4582 175.255 27.8046 174.263 28.5034C173.271 29.1972 172.631 30.0546 172.345 31.0725H183.52C183.41 29.967 182.886 29.0882 181.95 28.4362C181.012 27.7842 179.74 27.4582 178.131 27.4582ZM183.553 35.5501H187.718C187.543 36.6761 187.076 37.6843 186.315 38.5679C185.554 39.4516 184.523 40.1484 183.222 40.6564C181.923 41.1653 180.337 41.4203 178.461 41.4203C176.366 41.4203 174.516 41.0826 172.908 40.4082C171.299 39.7338 170.042 38.7548 169.137 37.4721C168.234 36.1914 167.782 34.6431 167.782 32.8301C167.782 31.0171 168.222 29.4629 169.103 28.1705C169.986 26.8772 171.216 25.8875 172.792 25.2033C174.367 24.5163 176.213 24.1737 178.328 24.1737C180.49 24.1737 182.284 24.5163 183.719 25.2033C185.15 25.8875 186.215 26.921 186.91 28.3019C187.603 29.6848 187.894 31.4501 187.786 33.5911H172.113C172.222 34.4329 172.538 35.1959 173.055 35.881C173.573 36.5671 174.28 37.1082 175.171 37.5072C176.064 37.9052 177.129 38.1027 178.363 38.1027C179.727 38.1027 180.871 37.8653 181.784 37.3904C182.699 36.9145 183.289 36.3024 183.553 35.5501Z" fill="#2E3954"></path></g><defs><linearGradient id="paint0_linear_2_956" x1="84.5251" y1="51.5645" x2="92.96" y2="59.9123" gradientUnits="userSpaceOnUse"><stop stop-color="#53BD8D"></stop><stop offset="1" stop-color="#418F65"></stop></linearGradient><linearGradient id="paint1_linear_2_956" x1="118.764" y1="28.5" x2="124.788" y2="19.5576" gradientUnits="userSpaceOnUse"><stop stop-color="#4AA074"></stop><stop offset="1" stop-color="#53BD8D"></stop></linearGradient><clipPath id="clip0_2_956"><rect width="288" height="60" fill="white"></rect></clipPath></defs></svg>