<svg xmlns="http://www.w3.org/2000/svg" width="40" height="40" viewBox="0 0 40 40" fill="none"><path d="M17.2224 3.05191V9.72664C17.2224 10.6319 16.4886 11.3654 15.5833 11.3654C12.3536 11.3654 10.5967 14.678 10.3532 21.216H15.5833C16.4886 21.216 17.2224 21.9501 17.2224 22.855V36.9484C17.2224 37.8532 16.4886 38.5868 15.5833 38.5868H1.63872C0.733131 38.5868 0 37.8526 0 36.9484V22.855C0 19.7208 0.315574 16.8447 0.93767 14.3056C1.57569 11.702 2.55507 9.42561 3.84774 7.53939C5.17787 5.60091 6.84168 4.07976 8.79334 3.02005C10.7582 1.95393 13.043 1.41319 15.5839 1.41319C16.4886 1.41319 17.2224 2.14667 17.2224 3.05191ZM38.3608 11.3655C39.2656 11.3655 40 10.6313 40 9.72675V3.05202C40 2.14678 39.2657 1.41331 38.3608 1.41331C35.821 1.41331 33.5358 1.95416 31.5716 3.02017C29.6196 4.07987 27.9549 5.60102 26.6245 7.5395C25.3323 9.42573 24.353 11.7022 23.7148 14.3064C23.0931 16.8463 22.7775 19.7224 22.7775 22.8552V36.9485C22.7775 37.8533 23.5115 38.5869 24.4165 38.5869H38.3607C39.2655 38.5869 39.9992 37.8527 39.9992 36.9485V22.855C39.9992 21.9503 39.2656 21.216 38.3607 21.216H33.2052C33.445 14.6781 35.1762 11.3655 38.3608 11.3655Z" fill="#53BD8D"></path></svg>