<svg xmlns="http://www.w3.org/2000/svg" width="213" height="100" viewBox="0 0 213 100" fill="none"><path d="M29.7587 100C27.5554 100 25.2238 99.8225 22.8874 99.4134C14.4583 97.9297 8.03058 93.7645 4.29913 87.3663C-0.0534023 79.9034 -1.12798 72.2532 1.19863 65.2339C3.94422 56.9331 11.1557 50.0913 22.0445 45.4479C36.3689 39.3356 45.8626 41.7806 53.4882 43.7424C56.5591 44.5311 59.211 45.2162 61.8088 45.2803C78.8936 45.6944 82.2504 41.0757 84.9467 37.359C85.4298 36.6936 85.8882 36.0626 86.4107 35.4613C86.9825 34.8007 87.2782 34.2142 87.3719 33.8543C87.3078 33.874 87.2437 33.8938 87.1846 33.9135C86.9627 33.9825 86.736 34.0564 86.5043 34.1205C84.7347 34.6183 82.8025 34.6923 80.7568 34.3374C79.0858 34.0515 74.9452 33.0361 72.6482 29.8715C70.3167 26.6625 68.0147 24.2916 65.6092 22.6107C63.3418 21.0284 62.1982 21.3537 58.9251 22.6255C54.2473 24.4444 51.0433 23.8233 49.1258 20.7277C47.4252 17.9772 46.1337 13.876 44.7683 9.53336C44.3937 8.34048 44.0141 7.13774 43.6247 5.95965L38.5328 20.3186C38.1385 21.4277 36.916 22.0093 35.8069 21.615C34.6978 21.2206 34.1162 20.0031 34.5105 18.8891L40.1743 2.92324C40.7165 1.46911 41.9094 -0.0195233 43.6445 0.000193738C46.1584 0.044557 47.1738 3.10069 47.5583 4.24921C47.997 5.56532 48.4209 6.91593 48.8399 8.25176C50.0673 12.1508 51.3341 16.1829 52.7537 18.48C53.1431 19.1109 53.7297 20.0623 57.3724 18.6426C60.675 17.3561 63.8002 16.1435 68.0443 19.106C70.8441 21.058 73.4763 23.7592 76.0937 27.3576C77.2225 28.9103 79.6132 29.8025 81.4765 30.1229C82.8665 30.3595 84.2073 30.32 85.346 29.9996C85.5234 29.9503 85.7009 29.8912 85.8685 29.837C86.8839 29.5116 89.5753 28.6441 91.1181 31.4488C92.2025 33.4205 91.6554 35.8999 89.6245 38.2463C89.2253 38.7096 88.8211 39.2666 88.3922 39.8581C85.2819 44.1417 81.0329 50.0223 61.6954 49.5392C58.6047 49.4653 55.5979 48.6914 52.4136 47.8682C45.0444 45.9704 36.6991 43.8262 23.7056 49.3667C13.9753 53.5171 7.59187 59.4667 5.24062 66.5698C3.31328 72.3912 4.2597 78.8338 7.97635 85.2073C11.8261 91.8076 18.4855 94.2623 23.3901 95.1595C31.4741 96.6432 38.9272 94.8095 40.0412 93.9124C40.9531 93.173 42.2988 93.3011 43.0431 94.2081C43.7874 95.1151 43.674 96.4411 42.772 97.1953C41.0467 98.6445 35.8809 100 29.7587 100Z" fill="#72217B"></path><path d="M54.7995 72.7166C54.0946 72.7166 53.4094 72.3666 53.0003 71.7307C50.1512 67.2845 46.7845 64.7164 42.9791 64.1052C36.783 63.1095 31.2376 67.5507 31.1834 67.5951C30.2715 68.3345 28.9258 68.2014 28.1815 67.2895C27.4372 66.3776 27.5703 65.0368 28.4772 64.2925C28.7631 64.0608 35.5162 58.6041 43.615 59.8808C48.6872 60.6843 53.0545 63.8932 56.5937 69.4238C57.2296 70.4146 56.9388 71.7357 55.948 72.3715C55.5881 72.6081 55.1938 72.7166 54.7995 72.7166Z" fill="#72217B"></path><path d="M91.7587 59.0625C90.4328 59.0625 88.7272 59.7131 87.5393 61.1131C87.49 60.6694 87.4259 60.211 87.3421 59.8216L87.2583 59.4273H83.5762L83.66 59.9941C83.8867 61.4975 84.0198 63.5087 84.0198 65.5149V78.8436H87.7463V67.2697C87.7463 65.6775 88.047 64.46 88.6385 63.6467C89.2695 62.7841 90.1321 62.3848 91.3496 62.3848C92.1728 62.3848 92.9664 62.5278 93.5234 62.7791L94.2184 63.0897V59.4371L93.8635 59.3336C93.2227 59.1512 92.5721 59.0625 91.7587 59.0625Z" fill="#72217B"></path><path d="M103.752 58.9541C98.3942 58.9541 95.3232 62.6412 95.3232 69.064C95.3232 75.8713 98.2709 79.3218 104.083 79.3218C106.527 79.3218 108.593 78.8486 110.387 77.8726L110.643 77.7346V74.5305L109.919 74.92C108.563 75.6446 107.03 76.4678 104.521 76.4678C101.1 76.4678 99.2864 74.1559 99.1385 69.5914H111.378V68.369C111.378 65.9191 111.087 64.1446 110.451 62.7841C109.179 60.0977 107.173 58.9541 103.752 58.9541ZM103.644 61.5518C106.37 61.5518 107.356 62.9566 107.425 67.0775H99.2223C99.5328 62.2813 102.101 61.5518 103.644 61.5518Z" fill="#72217B"></path><path d="M121.009 76.2164C120.201 76.2164 119.575 75.9354 119.378 75.4918C119.156 74.9742 119.052 74.1165 119.052 72.7955V62.0596H123.188V59.4273H119.057V54.6755H115.617L115.587 55.134C115.459 57.0366 115.38 58.6584 115.35 59.4273H112.516V62.0596H115.331V72.83C115.331 74.5404 115.38 75.8418 116.011 76.9755C116.77 78.405 118.239 79.1049 120.506 79.1049C121.399 79.1049 122.626 78.9324 123.494 78.686L123.848 78.5824V75.684L123.193 75.9157C122.601 76.1227 121.65 76.2164 121.009 76.2164Z" fill="#72217B"></path><path d="M134.027 59.0625C132.701 59.0625 130.996 59.7131 129.808 61.1131C129.759 60.6744 129.69 60.2159 129.611 59.8216L129.527 59.4273H125.845L125.933 59.9941C126.16 61.4975 126.293 63.5087 126.293 65.5149V78.8436H130.02V67.2697C130.02 65.6775 130.32 64.46 130.912 63.6467C131.543 62.7841 132.406 62.3848 133.623 62.3848C134.446 62.3848 135.24 62.5278 135.797 62.7791L136.492 63.0897V59.4371L136.137 59.3336C135.491 59.1512 134.841 59.0625 134.027 59.0625Z" fill="#72217B"></path><path d="M143.186 59.4323H139.42V78.8486H143.186V59.4323Z" fill="#72217B"></path><path d="M141.342 51.8954C139.829 51.8954 139.095 52.6545 139.095 54.2171C139.095 55.824 139.765 56.5387 141.269 56.5387C142.757 56.5387 143.482 55.7796 143.482 54.2171C143.482 52.6101 142.821 51.8954 141.342 51.8954Z" fill="#72217B"></path><path d="M155.529 58.9541C150.171 58.9541 147.1 62.6412 147.1 69.064C147.1 75.8713 150.048 79.3218 155.859 79.3218C158.304 79.3218 160.37 78.8486 162.164 77.8726L162.42 77.7346V74.5355L161.696 74.9249C160.34 75.6495 158.807 76.4727 156.298 76.4727C152.877 76.4727 151.063 74.1609 150.915 69.5964H163.155V68.3739C163.155 65.9241 162.859 64.1496 162.228 62.7891C160.956 60.0977 158.95 58.9541 155.529 58.9541ZM155.421 61.5518C158.147 61.5518 159.132 62.9566 159.201 67.0775H150.999C151.31 62.2813 153.878 61.5518 155.421 61.5518Z" fill="#72217B"></path><path d="M176.557 63.8488C174.67 69.2364 173.827 71.6419 173.063 74.072C172.032 71.011 171.051 68.1914 167.985 59.7526L167.867 59.4272H163.776L171.096 78.8436H174.369L181.881 59.4272H178.105L176.557 63.8488Z" fill="#72217B"></path><path d="M191.251 58.9541C185.893 58.9541 182.822 62.6412 182.822 69.064C182.822 75.8713 185.769 79.3218 191.581 79.3218C194.026 79.3218 196.091 78.8486 197.886 77.8726L198.142 77.7346V74.5355L197.417 74.9249C196.062 75.6495 194.529 76.4727 192.02 76.4727C188.599 76.4727 186.785 74.1609 186.637 69.5964H198.876V68.3739C198.876 65.9241 198.581 64.1496 197.95 62.7891C196.678 60.0977 194.677 58.9541 191.251 58.9541ZM191.142 61.5518C193.868 61.5518 194.854 62.9566 194.923 67.0775H186.721C187.031 62.2813 189.604 61.5518 191.142 61.5518Z" fill="#72217B"></path><path d="M212.235 59.3385C211.585 59.1463 210.934 59.0625 210.121 59.0625C208.795 59.0625 207.089 59.7131 205.901 61.1131C205.852 60.6694 205.783 60.211 205.704 59.8216L205.62 59.4273H201.938L202.022 59.9941C202.249 61.4975 202.382 63.5087 202.382 65.5149V78.8436H206.108V67.2697C206.108 65.6775 206.409 64.46 207 63.6467C207.631 62.7841 208.494 62.3848 209.711 62.3848C210.535 62.3848 211.328 62.5278 211.885 62.7791L212.58 63.0897V59.4371L212.235 59.3385Z" fill="#72217B"></path><path d="M85.3652 98.8268H86.4645L89.1263 92.2462H87.8989V91.2456H90.9156L93.9865 98.8268H95.1005V99.8274H91.4233V98.8268H92.7049L92.0444 97.1804H88.3376L87.6918 98.8268H88.9587V99.8274H85.3652V98.8268V98.8268ZM91.6599 96.1798L90.1959 92.4483L88.7319 96.1798H91.6599Z" fill="#A7358B"></path><path d="M95.9043 95.5883C95.9043 92.9413 97.5655 91.078 100.538 91.078C101.864 91.078 103.086 91.4428 103.791 91.7829V93.8532H102.638V92.4582C102.091 92.2906 101.341 92.1181 100.582 92.1181C98.4133 92.1181 97.1465 93.4539 97.1465 95.5538C97.1465 97.6684 98.4133 98.9352 100.558 98.9352C101.361 98.9352 102.081 98.7529 102.687 98.5261V96.2981H100.686V95.3122H104.629V96.2981H103.84V99.1719C103.18 99.5218 102.022 99.9901 100.528 99.9901C97.664 100 95.9043 98.3092 95.9043 95.5883Z" fill="#A7358B"></path><path d="M106.147 98.8269H107.414V92.2464H106.147V91.2457H113.092V93.6561H111.954V92.2464H108.656V95.0068H112.205V96.0074H108.656V98.8269H111.978V97.3777H113.132V99.8276H106.142V98.8269H106.147ZM107.552 90.0824L109.494 88.1501H110.268L112.225 90.0824L111.929 90.4472L109.874 89.3184L107.833 90.4472L107.552 90.0824Z" fill="#A7358B"></path><path d="M114.966 98.8268H116.233V92.2462H114.966V91.2456H117.5L122.133 97.8261V92.2462H120.881V91.2456H124.573V92.2462H123.321V99.8274H122.207L117.401 93.0497V98.8268H118.653V99.8274H114.961V98.8268H114.966Z" fill="#A7358B"></path><path d="M125.998 95.5735C125.998 92.8427 127.772 91.078 130.562 91.078C131.829 91.078 133.012 91.4428 133.633 91.7385V93.9912H132.435V92.4138C131.957 92.2462 131.252 92.1181 130.616 92.1181C128.674 92.1181 127.279 93.3159 127.279 95.5143C127.279 97.8114 128.812 98.9254 130.675 98.9254C131.804 98.9254 132.874 98.5015 133.633 98.0677V99.2507C132.997 99.5908 131.913 99.995 130.577 99.995C127.871 100 125.998 98.3634 125.998 95.5735Z" fill="#A7358B"></path><path d="M135.338 98.8268H136.605V92.2462H135.338V91.2456H139.099V92.2462H137.847V98.8268H139.099V99.8274H135.338V98.8268Z" fill="#A7358B"></path><path d="M140.258 98.8268H141.357L144.019 92.2462H142.791V91.2456H145.808L148.879 98.8268H149.993V99.8274H146.316V98.8268H147.597L146.937 97.1804H143.23L142.584 98.8268H143.851V99.8274H140.258V98.8268V98.8268ZM146.552 96.1798L145.088 92.4483L143.624 96.1798H146.552Z" fill="#A7358B"></path><path d="M154.316 98.8268H155.583V92.2462H154.316V91.2456H158.289C161.079 91.2456 162.839 92.823 162.839 95.5439C162.839 98.2501 161.079 99.8274 158.289 99.8274H154.316V98.8268ZM158.289 98.8268C160.389 98.8268 161.572 97.6142 161.572 95.5439C161.572 93.4588 160.389 92.2462 158.289 92.2462H156.825V98.8268H158.289Z" fill="#A7358B"></path><path d="M164.431 98.8268H165.697V92.2462H164.431V91.2456H168.192V92.2462H166.94V98.8268H168.192V99.8274H164.431V98.8268Z" fill="#A7358B"></path><path d="M169.789 95.5883C169.789 92.9413 171.45 91.078 174.423 91.078C175.749 91.078 176.971 91.4428 177.676 91.7829V93.8532H176.522V92.4582C175.97 92.2906 175.226 92.1181 174.467 92.1181C172.298 92.1181 171.031 93.4539 171.031 95.5538C171.031 97.6684 172.298 98.9352 174.442 98.9352C175.246 98.9352 175.965 98.7529 176.572 98.5261V96.2981H174.57V95.3122H178.514V96.2981H177.725V99.1719C177.065 99.5218 175.906 99.9901 174.413 99.9901C171.549 100 169.789 98.3092 169.789 95.5883Z" fill="#A7358B"></path><path d="M180.032 98.8268H181.299V92.2462H180.032V91.2456H183.793V92.2462H182.541V98.8268H183.793V99.8274H180.032V98.8268Z" fill="#A7358B"></path><path d="M187.101 98.8268H188.451V92.2462H186.366V93.6708H185.237V91.2456H192.902V93.6708H191.759V92.2462H189.688V98.8268H191.039V99.8274H187.096V98.8268H187.101Z" fill="#A7358B"></path><path d="M193.104 98.8268H194.204L196.866 92.2462H195.638V91.2456H198.655L201.726 98.8268H202.84V99.8274H199.163V98.8268H200.444L199.784 97.1804H196.077L195.431 98.8268H196.698V99.8274H193.104V98.8268V98.8268ZM199.404 96.1798L197.94 92.4483L196.476 96.1798H199.404Z" fill="#A7358B"></path><path d="M203.899 98.8268H205.166V92.2462H203.899V91.2456H207.842V92.2462H206.403V98.8268H209.73V97.2889H210.884V99.8225H203.894V98.8268H203.899Z" fill="#A7358B"></path></svg>